<?xml version="1.0" encoding="UTF-8"?>
<svg width="57.75mm" height="35.49mm" version="1.1" viewBox="0 0 57.75 35.49" xmlns="http://www.w3.org/2000/svg"><defs><clipPath id="clipPath6"><path d="m36 1031h770v124h-770z"/></clipPath><clipPath id="clipPath10"><path d="m122 1082h71.2v18h-71.2z"/></clipPath><clipPath id="clipPath12"><path d="m139 1073h38v6.13h-38z"/></clipPath><clipPath id="clipPath14"><path d="m88 1092h17v21.2h-17z"/></clipPath><clipPath id="clipPath16"><path d="m91 1093h12v16h-12z"/></clipPath><clipPath id="clipPath18"><path d="m97 1085h20v19h-20z"/></clipPath><clipPath id="clipPath20"><path d="m98 1087h14v11h-14z"/></clipPath><clipPath id="clipPath22"><path d="m85 1073h18v16h-18z"/></clipPath><clipPath id="clipPath24"><path d="m90 1077h12v12h-12z"/></clipPath><clipPath id="clipPath26"><path d="m96 1082h14v11h-14z"/></clipPath><clipPath id="clipPath28"><path d="m75.2 1083h21.8v18h-21.8z"/></clipPath><clipPath id="clipPath30"><path d="m80 1087h16v12h-16z"/></clipPath><clipPath id="clipPath32"><path d="m97 1084h9v8h-9z"/></clipPath><clipPath id="clipPath34"><path d="m86 1081h22v22h-22z"/></clipPath><clipPath id="clipPath36"><path transform="matrix(.0476 0 0 -.0476 -17.7 53)" d="m373 1113h96v16h-96z"/></clipPath><clipPath id="clipPath38"><path transform="matrix(.0833 0 0 -.0833 -33.8 90.9)" d="m406 1090h31v10h-31z"/></clipPath><clipPath id="clipPath40"><path transform="matrix(.0833 0 0 -.0833 -32.1 89.7)" d="m386 1074h71v11h-71z"/></clipPath><clipPath id="clipPath42"><path transform="matrix(.0833 0 0 -.0833 -33.4 88.5)" d="m401 1059h39v12h-39z"/></clipPath></defs><g transform="translate(-76.34 -129.8)"><g transform="matrix(.265 0 0 .265 -41.1 101)"><path transform="matrix(.283 0 0 -1.08 433 1356)" d="m36 1031h770v124h-770z" clip-path="url(#clipPath6)" fill="#212f3d"/><g transform="translate(0,14)"><path transform="matrix(1.33,0,0,-1.33,372,1588)" d="m192 1092c-1.01 0.278-2.49 0.551-3.8 0.551-1.21 0-1.81-0.098-1.81-1.1 0-0.676 0.352-0.852 2.34-1.11 3-0.375 4.33-1.28 4.33-3.92 0-3.49-2.52-4.42-5.77-4.42-1.39 0-3.4 0.278-4.59 0.703l0.758 2.91c0.957-0.273 2.39-0.527 3.65-0.527 1.51 0 2.22 0.125 2.22 1.13 0 0.703-0.43 0.976-2.57 1.18-2.7 0.25-4.13 1.03-4.13 3.77 0 3.49 2.49 4.4 5.72 4.4 1.39 0 3.2-0.278 4.41-0.703zm-14.4-0.101v-4.8c0-1.31 0.379-1.84 1.74-1.84 0.809 0 1.46 0.152 2.07 0.351l0.633-2.96c-0.957-0.403-2.5-0.653-3.88-0.653-2.85 0-4.43 0.856-4.43 4.7v10.8l3.88 1.56v-3.82h4.04v-3.32zm-9.09 3.32h3.83v-12.1c-1.64-0.578-4.23-1.16-6.53-1.16-3.58 0-5.29 1.51-5.29 6.1v7.14h3.83v-6.83c0-2.31 0.402-2.96 2.29-2.96 0.629 0 1.18 0.102 1.86 0.25zm-17.8-6.43c0-3.24 0.527-3.77 2.34-3.77 1.84 0 2.37 0.527 2.37 3.77 0 3.36-0.527 3.77-2.37 3.77-1.82 0-2.34-0.402-2.34-3.77m-3.91 0.075c0 5.25 2.14 6.71 6.25 6.71 4.18 0 6.3-1.46 6.3-6.71 0-5.28-2.09-6.86-6.3-6.86-4.16 0-6.25 1.58-6.25 6.86m-0.297-6.21c-1.03-0.426-2.77-0.653-4.06-0.653-3.85 0-6.42 1.58-6.42 6.86 0 5.23 2.59 6.71 6.42 6.71 1.34 0 3.05-0.2 4.06-0.551l-0.805-3.27c-0.73 0.278-1.87 0.532-2.93 0.532-1.89 0-2.85-0.329-2.85-3.49 0-3.02 0.961-3.47 2.85-3.47 1.11 0 2.2 0.277 2.93 0.578zm-12.4 12.4c-0.988 0.281-2.68 0.539-4.5 0.539-2.45 0-3.16-0.469-3.16-1.59 0-1.04 0.473-1.41 3.32-1.72 3.74-0.422 5.41-1.86 5.41-4.98 0-4.04-2.17-5.32-7.27-5.32-1.98 0-4 0.304-5.32 0.773l0.777 3.24c1.06-0.281 2.71-0.539 4.5-0.539 2.45 0 3.22 0.352 3.22 1.59 0 1.04-0.445 1.53-3.53 1.86-3.51 0.375-5.15 1.52-5.15 4.55 0 4.06 2.35 5.61 7.23 5.61 1.98 0 3.95-0.305 5.25-0.774z" clip-path="url(#clipPath10)" fill="#fff"/><path transform="matrix(1.33,0,0,-1.33,372,1588)" d="m164 1076v1.7h1.62c0.402 0 0.637-0.282 0.637-0.875 0-0.551-0.246-0.828-0.66-0.828zm1.97-0.582c1.13 0.039 1.49 0.738 1.49 1.55 0 0.911-0.383 1.65-1.58 1.65h-2.95v-5.66h1.07v2.16h0.758c0.363 0 0.894-0.61 1.78-2.16h1.32c-0.992 1.66-1.5 2.32-1.89 2.46m-6.53-1.61c-1.25 0-1.55 0.309-1.55 2.01 0 1.72 0.309 1.96 1.55 1.96s1.55-0.25 1.55-1.96c0-1.7-0.309-2.01-1.55-2.01m0 4.94c-1.8 0-2.7-0.618-2.7-2.91 0-2.34 0.895-3 2.7-3 1.8 0 2.69 0.66 2.69 3 0 2.29-0.895 2.91-2.69 2.91m9.07-5.79h1.07v5.66h-1.07zm3.45 2.33c0.289 0.855 0.594 1.69 0.879 2.42h0.219c0.219-0.731 0.496-1.58 0.789-2.42zm1.89 3.33h-1.68c-0.691-1.69-1.52-3.97-2.05-5.66h1.12c0.133 0.429 0.277 0.91 0.441 1.41h2.48c0.188-0.52 0.383-1.01 0.547-1.41h1.19c-0.637 1.51-1.46 3.84-2.04 5.66m-22.1-0.926h1.91v-4.73h1.08v4.73h1.91v0.926h-4.91zm-6.71-4.73h1.07v5.66h-1.07zm4.91 4.82c0.383 0 0.91-0.074 1.2-0.18l0.238 0.942c-0.441 0.121-1.11 0.211-1.63 0.211-1.8 0-2.66-0.598-2.66-2.91 0-2.3 0.863-3 2.66-3 0.523 0 1.19 0.082 1.63 0.203l-0.238 0.957c-0.293-0.105-0.82-0.175-1.2-0.175-1.23 0-1.7 0.265-1.7 2 0 1.73 0.465 1.94 1.7 1.94m-8.12-3.73c-0.418 1.41-1.11 3.33-1.62 4.57h-1.19c0.668-1.51 1.5-3.86 2.05-5.66h1.38c0.715 1.69 1.55 3.97 2.07 5.66h-1.13c-0.406-1.38-1-3.19-1.56-4.57" clip-path="url(#clipPath12)" fill="#fff"/><path transform="matrix(1.33,0,0,-1.33,372,1588)" d="m105 1104c-0.211 1.77-0.613 3.34-0.855 4.24-0.68 2.51-1.59 4.96-3.3 4.94-1.86-0.016-2.78-2.22-3.9-4.94-1.14-2.77-1.8-3.96-2.82-4.5-1.41-0.746-3.99 0.313-4.95-0.851-0.43-0.531-0.527-1.38-0.387-2.36 0.102-0.718 0.332-1.5 0.645-2.28 0.297-0.726 0.668-1.44 1.08-2.08 0.949-1.46 2.17-2.59 3.68-3.23 0.348-0.153 0.715-0.278 1.09-0.375 0.0312-0.01 0.0586-0.016 0.0898-0.02 0.543-0.133 1.12-0.211 1.73-0.227h0.492c0.484 0.024 1.01 0.106 1.55 0.262 0.0391 0.012 0.0781 0.024 0.121 0.035 0.0469 0.016 0.0976 0.032 0.148 0.047 0.234 0.078 0.473 0.168 0.711 0.274 0.0938 0.043 0.191 0.09 0.285 0.136 1.53 0.754 3.02 2.12 3.92 4.27 0.293 0.699 0.52 1.48 0.668 2.35 0.234 1.4 0.184 2.92 0.0156 4.3" clip-path="url(#clipPath14)" fill="#fbc11c"/><path transform="matrix(1.33,0,0,-1.33,372,1588)" d="m102 1102c-0.0938 1.54-0.442 2.96-0.82 4.12-0.352 1.07-0.894 1.91-1.65 1.91-1.12 0-1.88-1.28-2.63-2.66-0.941-1.71-1.69-2.8-3.56-3.28-1.14-0.293-1.9-0.711-2.17-1.66-0.0664-0.235-0.0977-0.481-0.105-0.735-0.0274-0.816 0.223-1.7 0.59-2.48 0.355-0.746 0.812-1.39 1.23-1.77 0.496-0.457 1.05-0.812 1.65-1.06 0.605-0.25 1.26-0.391 1.96-0.41h0.152c0.203 0 0.402 0.015 0.594 0.039 2.32 0.304 3.98 2.35 4.5 4.6 0.203 0.868 0.285 1.74 0.285 2.57 0 0.281-8e-3 0.558-0.0234 0.832" clip-path="url(#clipPath16)" fill="#ef7d15"/><path transform="matrix(1.33,0,0,-1.33,372,1588)" d="m116 1097c-3.66 1.92-9.7 1.94-9.64 6.03 0.0156 1.09-0.602 1.53-1.41 1.28-0.195-0.058-0.402-0.16-0.617-0.305-0.52-0.355-1.2-0.902-1.93-1.6-0.461-0.442-0.938-0.938-1.4-1.48-1.33-1.56-2.96-4.11-3.36-6.52-0.0195-0.129-0.0391-0.262-0.0547-0.391-0.0508-0.488-0.0703-0.949-0.0547-1.39 0.0078-0.351 0.0391-0.691 0.0898-1.02 0.102-0.645 0.277-1.23 0.52-1.75 0.215-0.473 0.484-0.899 0.797-1.28 0.527-0.649 1.18-1.18 1.92-1.6 0.195-0.113 0.387-0.211 0.582-0.305 1.48-0.715 2.9-0.898 4.19-0.644 0.574 0.117 1.12 0.32 1.63 0.605 0.0469 0.024 0.0938 0.047 0.141 0.074 2.68 1.58 2.09 4.56 5.21 6.73 1.43 0.988 2.56 1.44 3.52 1.75 1.05 0.332 1.05 1.19-0.141 1.81" clip-path="url(#clipPath18)" fill="#71c32d"/><path transform="matrix(1.33,0,0,-1.33,372,1588)" d="m104 1097c-1.2-0.152-2.38-0.586-3.38-1.42-0.648-0.543-1.29-1.6-1.48-2.82-0.0664-0.149-0.129-0.301-0.188-0.457-0.0039-0.012-0.0078-0.02-0.0117-0.032-0.0586-0.144-0.113-0.297-0.164-0.449-0.133-0.387-0.246-0.805-0.328-1.26-0.0156-0.09-0.0312-0.179-0.0469-0.273-0.0703-0.453-0.109-0.938-0.109-1.47v-0.207h0.832v0.207c0 0.141 0.0039 0.281 0.0117 0.422 0.0273 0.422 0.0859 0.856 0.176 1.28 0.0508 0.223 0.105 0.446 0.168 0.664 0.352 0.168 0.742 0.258 1.14 0.247 1.15-0.036 1.89-0.532 2.37-1.16 0.0781-0.105 0.152-0.214 0.219-0.324 0.133-0.226 0.238-0.457 0.324-0.687 0.0703-0.196 0.129-0.383 0.176-0.567 0.0273-0.113 0.0586-0.222 0.0898-0.332 0.0625-0.222 0.137-0.437 0.211-0.648 0.0391-0.102 0.0782-0.207 0.121-0.309 0.0664 0.012 0.133 0.024 0.203 0.039 0.465 0.098 0.898 0.278 1.28 0.516 0.516 0.324 0.926 0.758 1.17 1.23 0.621 1.22 1.26 2.48 2.51 3.3 1.4 0.922 2.21 0.938 2.21 1.76 0 1.15-3.87 3.22-7.5 2.75" clip-path="url(#clipPath20)" fill="#36a13f"/><path transform="matrix(1.33,0,0,-1.33,372,1588)" d="m103 1082c-4e-3 0.176-0.0196 0.371-0.043 0.582-0.082 0.715-0.285 1.6-0.703 2.5-0.242 0.512-0.559 1.03-0.965 1.52-0.606 0.731-1.42 1.4-2.5 1.9-0.0977 0.047-0.195 0.09-0.297 0.132-0.195 0.083-0.398 0.157-0.602 0.219-0.406 0.125-0.82 0.211-1.23 0.246-0.254 0.024-0.512 0.024-0.766 0.01-1.52-0.105-2.99-0.941-4.07-2.92-0.168-0.312-0.391-0.652-0.652-1.01-1.16-1.59-3.09-3.48-4.28-4.31-0.734-0.516-1.41-0.801-1.38-1.16 0.0508-0.692 2.68 0.363 5.92-1.24 3.11-1.53 4.08-3.62 5.89-4.67 1.79-1.04 3.38-0.23 4.27 1.58 0.957 1.95 1.49 4.25 1.41 6.62" clip-path="url(#clipPath22)" fill="#ef7d15"/><path transform="matrix(1.33,0,0,-1.33,372,1588)" d="m100 1085c-0.727 0.27-1.41 0.715-1.96 1.42-0.199 0.258-0.355 0.524-0.473 0.789-0.184 0.407-0.273 0.813-0.289 1.21-0.406 0.125-0.82 0.211-1.23 0.246-0.258 0.024-0.512 0.028-0.77 0.01-0.445-0.734-1.01-1.37-1.61-1.91-0.0508-0.047-0.102-0.09-0.148-0.133-0.641-0.59-0.969-1.32-1.58-2.21-0.336-0.488-0.758-1.03-1.36-1.62-1.21-1.18-0.371-2.04 0.0273-2.42 1.51-1.45 5.32-3.38 7.35-2.38 1.19 0.586 2.49 1.52 2.68 4.35 4e-3 0.039 8e-3 0.078 8e-3 0.117 0.0468 0.809-0.188 1.72-0.637 2.54" clip-path="url(#clipPath24)" fill="#ba551f"/><path transform="matrix(1.33,0,0,-1.33,372,1588)" d="m109 1085c-0.883 0.519-1.65 1-2.35 1.73-0.492 0.504-0.949 1.13-1.39 1.97-0.0937 0.184-0.191 0.371-0.285 0.574-0.871 1.86-1.68 4.18-4.46 4.18-0.285 0-0.559-0.028-0.82-0.071-0.082-0.015-0.164-0.031-0.242-0.046-0.25-0.059-0.484-0.133-0.707-0.231-0.0508-0.019-0.0977-0.039-0.141-0.062-0.0469-0.02-0.0898-0.043-0.133-0.067-0.59-0.301-1.08-0.738-1.46-1.28-0.469-0.676-0.754-1.51-0.816-2.44-0.0234-0.363-0.0156-0.738 0.0312-1.12 0.0039-0.054 0.0117-0.105 0.0195-0.156 0.297-2.09 1.82-4.44 4.54-5.04 0.129-0.027 0.258-0.055 0.395-0.074 0.449-0.067 0.887-0.11 1.32-0.129 3.16-0.149 5.75 0.855 6.55 1.2 0.262 0.109 0.57 0.273 0.57 0.488-4e-3 0.168-0.219 0.325-0.617 0.563" clip-path="url(#clipPath26)" fill="#a31a34"/><path transform="matrix(1.33,0,0,-1.33,372,1588)" d="m96.6 1094c-0.496 2.57-2.27 4.55-5.43 5.72-0.82 0.305-1.73 0.555-2.74 0.75-0.824 0.157-1.71 0.278-2.66 0.356-3.5 0.289-6.23 0.039-8.15-0.66-1.45-0.528-2.14-1.46-2.27-2.3-0.172-1.14 0.477-2.14 1.71-3.04 2.54-1.86 6.09-2.46 7.29-4.96 0.465-0.969 0.516-2.01 0.293-3.19-0.23-1.2-0.551-2.16 0.145-2.76 0.711-0.621 2.03-0.598 4.22 0.164 0.293 0.101 1.06 0.355 2.01 0.804 0.91 0.434 1.98 1.05 2.95 1.88 0.0469 0.047 0.0976 0.09 0.148 0.133 0.609 0.543 1.17 1.18 1.62 1.91 0.586 0.969 0.973 2.11 1 3.44 0 0.051 0.0039 0.102 0.0039 0.153 0 0.555-0.0508 1.08-0.148 1.59" clip-path="url(#clipPath28)" fill="#ec5146"/><path transform="matrix(1.33,0,0,-1.33,372,1588)" d="m95 1092c0.0039 0.066 0.0078 0.133 0.0078 0.203 0.0039 0.672-0.121 1.33-0.375 1.93-0.117 0.285-0.266 0.551-0.441 0.801-0.633 0.89-1.49 1.55-2.44 2.04-0.852 0.441-1.78 0.742-2.69 0.945-1.65 0.379-3.23 0.441-4.12 0.465-2.59 0.066-4.41-0.363-4.79-1.43-0.281-0.863-0.0039-1.66 1.36-2.48 3.56-2.13 4.09-3.16 4.93-5.34 0.824-2.14 3.71-2.95 6.22-1.22 0.914 0.629 1.55 1.44 1.93 2.31 0.082-0.481 0.129-0.953 0.129-1.4v-0.207h0.828v0.207c0 1.28-0.23 2.3-0.543 3.18" clip-path="url(#clipPath30)" fill="#ed1c24"/><path transform="matrix(1.33,0,0,-1.33,372,1588)" d="m105 1085c-0.0508 0.05-0.0977 0.105-0.145 0.156-0.52 0.562-0.926 1.25-1.24 2.02-0.168 0.406-0.309 0.836-0.426 1.29-0.297 1.16-1.04 2.68-3.08 2.74-0.402 0.011-0.789-0.079-1.14-0.247-0.105-0.05-0.207-0.105-0.305-0.171-0.293-0.188-0.559-0.434-0.773-0.727-0.234-0.316-0.414-0.684-0.52-1.08-0.0781-0.297-0.117-0.609-0.102-0.93 0.0156-0.398 0.109-0.804 0.289-1.21 0.121-0.265 0.273-0.531 0.473-0.789 0.547-0.703 1.23-1.15 1.96-1.42 0.535-0.203 1.1-0.308 1.64-0.355 1.35-0.117 2.58 0.133 3.04 0.219 0.633 0.117 0.656 0.175 0.332 0.5" clip-path="url(#clipPath32)" fill="#751d2c"/><path transform="matrix(1.33,0,0,-1.33,372,1588)" d="m104 1096c-3.1 0-4.89-4-4.89-6.9h-0.41c0 3.96 2.24 5.35 2.24 8 0 1.28-0.684 2.75-2.11 3.82-0.191 0.141-1.13 0.844-1.69 1.45-0.559-0.602-1.5-1.3-1.69-1.45-1.43-1.07-2.11-2.54-2.11-3.82 0-2.66 2.24-4.04 2.24-8h-0.414c0 2.9-1.79 6.9-4.89 6.9-2.21 0-3.73-2.1-3.28-4.18 0.309-1.4 1.58-2.62 3.1-2.41-0.258 0.965 0.188 2.05 1.25 2.21 1.23 0.176 1.98-1.08 2.21-2.52h-0.0195c-0.25 0-0.453-0.203-0.453-0.449 0-0.25 0.203-0.453 0.453-0.453h7.2c0.246 0 0.449 0.203 0.449 0.453 0 0.246-0.203 0.449-0.449 0.449h-0.0234c0.23 1.44 0.976 2.7 2.21 2.52 1.06-0.153 1.51-1.24 1.25-2.21 1.52-0.211 2.79 1.01 3.1 2.41 0.453 2.08-1.07 4.18-3.28 4.18m-3.45-8.24c0 0.01 0 0.02-4e-3 0.032h-1.43c0.0469-1.04 0.852-3.13 2.16-3.13 0.957 0 1.7 0.836 1.77 1.75-1.16-0.262-2.33 0.01-2.49 1.35m-4.98 0.032c-0.102-0.993-0.457-2.2-1.17-3.18 0.492-1.07 1.57-2.14 2.73-2.8 1.16 0.668 2.24 1.74 2.73 2.8-0.707 0.976-1.07 2.19-1.17 3.18zm-0.414 0c-0.0469-1.04-0.852-3.13-2.15-3.13-0.957 0-1.7 0.836-1.78 1.75 1.16-0.262 2.34 0.01 2.49 1.35 0 0.01 0.0039 0.02 0.0039 0.032z" clip-path="url(#clipPath34)" fill="#fff"/></g><path transform="matrix(28,0,0,28,485,203)" d="m0.132-1.86e-5c-0.0149 0-0.0262-0.00363-0.034-0.0112-0.00753-0.00781-0.0112-0.0191-0.0112-0.034v-0.615c0-0.0145 0.00363-0.0254 0.0112-0.0329 0.00781-0.00781 0.0191-0.0117 0.034-0.0117h0.237c0.0487 0 0.0898 0.00725 0.123 0.0218 0.0338 0.0142 0.0597 0.035 0.0776 0.0625 0.0181 0.0272 0.0273 0.0603 0.0273 0.0993 0 0.0444-0.0128 0.0812-0.0385 0.11-0.0257 0.029-0.0605 0.0483-0.104 0.0575v-0.014c0.0498 6e-3 0.0889 0.024 0.117 0.0541 0.0282 0.0301 0.0424 0.0698 0.0424 0.119 0 0.0629-0.0204 0.111-0.0608 0.145-0.0406 0.0332-0.0979 0.0497-0.172 0.0497zm0.0346-0.0658h0.206c0.0536 0 0.0935-0.0106 0.12-0.0318 0.0268-0.0215 0.0402-0.0539 0.0402-0.0971 0-0.0442-0.0134-0.0767-0.0402-0.0977-0.0265-0.0212-0.0664-0.0318-0.12-0.0318h-0.206zm0-0.324h0.19c0.052 0 0.0915-0.0106 0.118-0.0318 0.0271-0.0215 0.0407-0.0522 0.0407-0.0921 0-0.0413-0.0137-0.0723-0.0407-0.0932-0.0268-0.0212-0.0663-0.0318-0.118-0.0318h-0.19zm-0.0138 0.39c-0.0149 0-0.0262-0.00363-0.034-0.0112-0.00753-0.00781-0.0112-0.0191-0.0112-0.034v-0.615c0-0.0145 0.00363-0.0254 0.0112-0.0329 0.00781-0.00781 0.0191-0.0117 0.034-0.0117h0.237c0.0487 0 0.0898 0.00725 0.123 0.0218 0.0338 0.0142 0.0597 0.035 0.0776 0.0625 0.0181 0.0272 0.0273 0.0603 0.0273 0.0993 0 0.0444-0.0128 0.0812-0.0385 0.11-0.0257 0.029-0.0605 0.0483-0.104 0.0575v-0.014c0.0498 6e-3 0.0889 0.024 0.117 0.0541 0.0282 0.0301 0.0424 0.0698 0.0424 0.119 0 0.0629-0.0204 0.111-0.0608 0.145-0.0406 0.0332-0.0979 0.0497-0.172 0.0497zm0.0346-0.0658h0.206c0.0536 0 0.0935-0.0106 0.12-0.0318 0.0268-0.0215 0.0402-0.0539 0.0402-0.0971 0-0.0442-0.0134-0.0767-0.0402-0.0977-0.0265-0.0212-0.0664-0.0318-0.12-0.0318h-0.206zm0-0.324h0.19c0.052 0 0.0915-0.0106 0.118-0.0318 0.0271-0.0215 0.0407-0.0522 0.0407-0.0921 0-0.0413-0.0137-0.0723-0.0407-0.0932-0.0268-0.0212-0.0663-0.0318-0.118-0.0318h-0.19zm0.627 0.397c-0.0134 0-0.0237-0.00377-0.0307-0.0112-0.00712-0.00739-0.0106-0.0179-0.0106-0.0312v-0.417c0-0.0134 0.00335-0.0234 0.01-0.0301 0.0067-0.00698 0.0163-0.0106 0.029-0.0106 0.0126 0 0.0225 0.00363 0.0296 0.0106 0.00698 0.0067 0.0106 0.0167 0.0106 0.0301v0.0809h-0.01c0.0107-0.0393 0.031-0.0698 0.0608-0.091 0.0301-0.0212 0.0671-0.0325 0.111-0.034 0.01-6.98e-4 0.018 0.00154 0.024 0.0067 0.00586 0.00488 0.00921 0.0134 0.01 0.0257 6.98e-4 0.0112-0.00195 0.0201-0.00781 0.0268-6e-3 0.0067-0.0155 0.0106-0.0285 0.0117l-0.0156 0.00223c-0.0455 0.00418-0.0804 0.0187-0.105 0.0435-0.0243 0.025-0.0363 0.0592-0.0363 0.103v0.242c0 0.0134-0.00363 0.0239-0.0106 0.0312-0.0067 0.00739-0.0167 0.0112-0.0301 0.0112zm0.0208 0c-0.0134 0-0.0237-0.00377-0.0307-0.0112-0.00712-0.00739-0.0106-0.0179-0.0106-0.0312v-0.417c0-0.0134 0.00335-0.0234 0.01-0.0301 0.0067-0.00698 0.0163-0.0106 0.029-0.0106 0.0126 0 0.0225 0.00363 0.0296 0.0106 0.00698 0.0067 0.0106 0.0167 0.0106 0.0301v0.0809h-0.01c0.0107-0.0393 0.031-0.0698 0.0608-0.091 0.0301-0.0212 0.0671-0.0325 0.111-0.034 0.01-6.98e-4 0.018 0.00154 0.024 0.0067 0.00586 0.00488 0.00921 0.0134 0.01 0.0257 6.98e-4 0.0112-0.00195 0.0201-0.00781 0.0268-6e-3 0.0067-0.0155 0.0106-0.0285 0.0117l-0.0156 0.00223c-0.0455 0.00418-0.0804 0.0187-0.105 0.0435-0.0243 0.025-0.0363 0.0592-0.0363 0.103v0.242c0 0.0134-0.00363 0.0239-0.0106 0.0312-0.0067 0.00739-0.0167 0.0112-0.0301 0.0112zm0.514 0.00167c-0.0473 0-0.0882-0.0102-0.123-0.0307-0.0346-0.0208-0.0617-0.0499-0.0809-0.0876-0.019-0.0375-0.0285-0.082-0.0285-0.133 0-0.0386 0.0053-0.0734 0.0162-0.104 0.0107-0.0312 0.0264-0.0578 0.0469-0.0798 0.0208-0.0219 0.0453-0.0386 0.0737-0.0502 0.0282-0.0119 0.06-0.0179 0.0954-0.0179 0.0472 0 0.0882 0.0105 0.123 0.0312 0.0349 0.0205 0.0619 0.0497 0.0809 0.0876 0.019 0.0377 0.0285 0.082 0.0285 0.133 0 0.0384-0.00544 0.073-0.0162 0.104-0.0105 0.0306-0.0261 0.0569-0.0469 0.0792-0.0209 0.0223-0.0455 0.0395-0.0737 0.0513-0.0283 0.0114-0.0601 0.0173-0.0954 0.0173zm0-0.0647c0.0301 0 0.0565-0.00725 0.0792-0.0218 0.0226-0.0148 0.0402-0.0363 0.0525-0.0642 0.0123-0.0282 0.0184-0.0619 0.0184-0.101 0-0.061-0.0137-0.107-0.0407-0.14-0.0268-0.0319-0.0633-0.048-0.109-0.048-0.0306 0-0.0569 0.00725-0.0792 0.0218-0.0223 0.0142-0.0399 0.0352-0.0525 0.0631-0.0123 0.0276-0.0184 0.0618-0.0184 0.103 0 0.06 0.0135 0.106 0.0407 0.138 0.0275 0.0324 0.0639 0.0485 0.109 0.0485zm0.0208 0.0647c-0.0473 0-0.0882-0.0102-0.123-0.0307-0.0346-0.0208-0.0617-0.0499-0.0809-0.0876-0.019-0.0375-0.0285-0.082-0.0285-0.133 0-0.0386 0.0053-0.0734 0.0162-0.104 0.0107-0.0312 0.0264-0.0578 0.0469-0.0798 0.0208-0.0219 0.0453-0.0386 0.0737-0.0502 0.0282-0.0119 0.06-0.0179 0.0954-0.0179 0.0472 0 0.0882 0.0105 0.123 0.0312 0.0349 0.0205 0.0619 0.0497 0.0809 0.0876 0.019 0.0377 0.0285 0.082 0.0285 0.133 0 0.0384-0.00544 0.073-0.0162 0.104-0.0105 0.0306-0.0261 0.0569-0.0469 0.0792-0.0209 0.0223-0.0455 0.0395-0.0737 0.0513-0.0283 0.0114-0.0601 0.0173-0.0954 0.0173zm0-0.0647c0.0301 0 0.0565-0.00725 0.0792-0.0218 0.0226-0.0148 0.0402-0.0363 0.0525-0.0642 0.0123-0.0282 0.0184-0.0619 0.0184-0.101 0-0.061-0.0137-0.107-0.0407-0.14-0.0268-0.0319-0.0633-0.048-0.109-0.048-0.0306 0-0.0569 0.00725-0.0792 0.0218-0.0223 0.0142-0.0399 0.0352-0.0525 0.0631-0.0123 0.0276-0.0184 0.0618-0.0184 0.103 0 0.06 0.0135 0.106 0.0407 0.138 0.0275 0.0324 0.0639 0.0485 0.109 0.0485zm0.516 0.0631c-0.0112 0-0.0212-0.00307-0.0301-0.00893-0.00865-0.00628-0.0155-0.0162-0.0206-0.0296l-0.149-0.405c-0.00419-0.0114-0.00544-0.0215-0.00391-0.0301 0.00181-0.00851 0.00614-0.0151 0.0128-0.0195 0.0067-0.00474 0.0151-0.00725 0.0251-0.00725s0.0181 0.00251 0.0246 0.00725c0.00628 0.00446 0.0113 0.0131 0.0151 0.0257l0.14 0.4h-0.024l0.144-0.4c0.00474-0.0123 0.0107-0.0208 0.0179-0.0257 0.00698-0.00474 0.0162-0.00725 0.0273-0.00725 0.0107 0 0.0197 0.00265 0.0268 0.00781 0.00739 0.0053 0.0131 0.0137 0.0173 0.0251l0.141 0.4h-0.0234l0.142-0.402c0.00446-0.0119 0.01-0.0198 0.0167-0.024 0.0067-0.00446 0.0146-0.0067 0.024-0.0067 0.0107 0 0.019 0.00265 0.0246 0.00781 0.00558 0.0053 0.00865 0.0123 0.00949 0.0212 6.98e-4 0.00865-9.77e-4 0.0179-0.00502 0.0279l-0.149 0.405c-0.00446 0.0127-0.0114 0.0223-0.0206 0.029-0.00893 0.00628-0.019 0.00949-0.0301 0.00949-0.0116 0-0.0216-0.00321-0.0301-0.00949-0.00865-0.0067-0.0153-0.0163-0.0201-0.029l-0.148-0.406h0.043l-0.147 0.406c-0.00488 0.0127-0.0116 0.0223-0.0201 0.029-0.00865 0.00628-0.019 0.00949-0.0312 0.00949zm0.0208 0c-0.0112 0-0.0212-0.00307-0.0301-0.00893-0.00865-0.00628-0.0155-0.0162-0.0206-0.0296l-0.149-0.405c-0.00419-0.0114-0.00544-0.0215-0.00391-0.0301 0.00181-0.00851 0.00614-0.0151 0.0128-0.0195 0.0067-0.00474 0.0151-0.00725 0.0251-0.00725s0.0181 0.00251 0.0246 0.00725c0.00628 0.00446 0.0113 0.0131 0.0151 0.0257l0.14 0.4h-0.024l0.144-0.4c0.00474-0.0123 0.0107-0.0208 0.0179-0.0257 0.00698-0.00474 0.0162-0.00725 0.0273-0.00725 0.0107 0 0.0197 0.00265 0.0268 0.00781 0.00739 0.0053 0.0131 0.0137 0.0173 0.0251l0.141 0.4h-0.0234l0.142-0.402c0.00446-0.0119 0.01-0.0198 0.0167-0.024 0.0067-0.00446 0.0146-0.0067 0.024-0.0067 0.0107 0 0.019 0.00265 0.0246 0.00781 0.00558 0.0053 0.00865 0.0123 0.00949 0.0212 6.98e-4 0.00865-9.76e-4 0.0179-0.00502 0.0279l-0.149 0.405c-0.00446 0.0127-0.0114 0.0223-0.0206 0.029-0.00893 0.00628-0.019 0.00949-0.0301 0.00949-0.0116 0-0.0216-0.00321-0.0301-0.00949-0.00865-0.0067-0.0153-0.0163-0.0201-0.029l-0.148-0.406h0.043l-0.147 0.406c-0.00488 0.0127-0.0116 0.0223-0.0201 0.029-0.00865 0.00628-0.019 0.00949-0.0312 0.00949zm0.714 0c-0.0134 0-0.0234-0.00377-0.0301-0.0112-0.0067-0.00739-0.01-0.0179-0.01-0.0312v-0.417c0-0.0134 0.00335-0.0234 0.01-0.0301 0.0067-0.00698 0.0163-0.0106 0.029-0.0106 0.0126 0 0.0225 0.00363 0.0296 0.0106 0.00698 0.0067 0.0106 0.0167 0.0106 0.0301v0.0859l-0.0112-0.0117c0.0141-0.0386 0.037-0.0678 0.0686-0.0876 0.0315-0.0197 0.0681-0.0296 0.109-0.0296 0.0386 0 0.0709 0.00712 0.0965 0.0212 0.0257 0.0138 0.0448 0.035 0.0575 0.0636 0.0126 0.0283 0.019 0.064 0.019 0.107v0.268c0 0.0134-0.00363 0.0239-0.0106 0.0312-0.00711 0.00739-0.017 0.0112-0.0296 0.0112-0.0131 0-0.0232-0.00377-0.0301-0.0112-0.00712-0.00739-0.0106-0.0179-0.0106-0.0312v-0.263c0-0.0453-0.00893-0.0784-0.0268-0.0993-0.0176-0.0212-0.0456-0.0318-0.0843-0.0318-0.0446 0-0.0802 0.014-0.107 0.0419-0.0265 0.0276-0.0396 0.0645-0.0396 0.11v0.242c0 0.0283-0.0137 0.0424-0.0407 0.0424zm0.0209 0c-0.0134 0-0.0234-0.00377-0.0301-0.0112-0.0067-0.00739-0.01-0.0179-0.01-0.0312v-0.417c0-0.0134 0.00335-0.0234 0.01-0.0301 0.0067-0.00698 0.0163-0.0106 0.029-0.0106 0.0126 0 0.0225 0.00363 0.0296 0.0106 0.00698 0.0067 0.0106 0.0167 0.0106 0.0301v0.0859l-0.0112-0.0117c0.0141-0.0386 0.037-0.0678 0.0686-0.0876 0.0315-0.0197 0.0681-0.0296 0.109-0.0296 0.0386 0 0.0709 0.00712 0.0965 0.0212 0.0257 0.0138 0.0448 0.035 0.0575 0.0636 0.0126 0.0283 0.019 0.064 0.019 0.107v0.268c0 0.0134-0.00363 0.0239-0.0106 0.0312-0.00711 0.00739-0.017 0.0112-0.0296 0.0112-0.0131 0-0.0232-0.00377-0.0301-0.0112-0.00711-0.00739-0.0106-0.0179-0.0106-0.0312v-0.263c0-0.0453-0.00893-0.0784-0.0268-0.0993-0.0176-0.0212-0.0456-0.0318-0.0843-0.0318-0.0446 0-0.0802 0.014-0.107 0.0419-0.0265 0.0276-0.0396 0.0645-0.0396 0.11v0.242c0 0.0283-0.0137 0.0424-0.0407 0.0424zm0.693 0.00167c-0.0301 0-0.0605-0.00363-0.091-0.0106-0.0301-0.00739-0.0583-0.0202-0.0843-0.0385-0.00642-0.00446-0.011-0.00977-0.014-0.0162-0.00265-0.00628-0.00335-0.0126-0.00223-0.019 0.00112-0.00628 0.00363-0.0117 0.00781-0.0162 0.00446-0.00474 0.00977-0.00781 0.0162-0.00893 0.00628-0.00112 0.0134 4.19e-4 0.0212 0.00446 0.0259 0.016 0.0511 0.0272 0.0753 0.0335 0.0246 0.00642 0.0488 0.00949 0.0731 0.00949 0.0379 0 0.0665-0.00684 0.0859-0.0206 0.0193-0.0141 0.029-0.0332 0.029-0.0575 0-0.0186-0.00642-0.0332-0.019-0.0441-0.0127-0.0112-0.0328-0.0197-0.0603-0.0257l-0.091-0.0201c-0.0421-0.00851-0.0734-0.0234-0.0938-0.0446-0.0201-0.0215-0.0301-0.0492-0.0301-0.0831 0-0.0301 0.00781-0.0559 0.0234-0.0776 0.0156-0.0219 0.0377-0.0388 0.0664-0.0508 0.0286-0.0119 0.0619-0.0179 0.0999-0.0179 0.0293 0 0.0572 0.00391 0.0837 0.0117 0.0264 0.00753 0.0502 0.0195 0.0714 0.0363 0.0067 0.00488 0.0112 0.0105 0.0134 0.0167 0.00251 0.00642 0.00293 0.0127 0.00112 0.019-0.00153 0.00642-0.00474 0.0117-0.00949 0.0162-0.00446 0.00418-0.01 0.00656-0.0167 0.00725-0.0067 4.19e-4 -0.0138-0.00167-0.0212-0.00614-0.0201-0.0134-0.0406-0.0232-0.0614-0.0296-0.0205-0.00628-0.0407-0.00949-0.0608-0.00949-0.0372 0-0.0656 0.00753-0.0848 0.0223-0.0194 0.0145-0.029 0.0338-0.029 0.0575 0 0.019 0.00586 0.0345 0.0179 0.0463 0.0123 0.012 0.031 0.0205 0.0564 0.0257l0.091 0.019c0.0431 0.00977 0.0755 0.0248 0.0971 0.0452 0.0219 0.0201 0.0329 0.0474 0.0329 0.082 0 0.0439-0.0177 0.079-0.053 0.105-0.0354 0.0261-0.0824 0.0391-0.141 0.0391zm0.0208 0c-0.0301 0-0.0605-0.00363-0.091-0.0106-0.0301-0.00739-0.0583-0.0202-0.0843-0.0385-0.00642-0.00446-0.011-0.00977-0.014-0.0162-0.00265-0.00628-0.00335-0.0126-0.00223-0.019 0.00112-0.00628 0.00363-0.0117 0.00781-0.0162 0.00446-0.00474 0.00977-0.00781 0.0162-0.00893 0.00628-0.00112 0.0134 4.19e-4 0.0212 0.00446 0.0259 0.016 0.0511 0.0272 0.0753 0.0335 0.0246 0.00642 0.0488 0.00949 0.0731 0.00949 0.0379 0 0.0665-0.00684 0.0859-0.0206 0.0193-0.0141 0.029-0.0332 0.029-0.0575 0-0.0186-0.00642-0.0332-0.019-0.0441-0.0127-0.0112-0.0328-0.0197-0.0603-0.0257l-0.091-0.0201c-0.0421-0.00851-0.0734-0.0234-0.0938-0.0446-0.0201-0.0215-0.0301-0.0492-0.0301-0.0831 0-0.0301 0.00781-0.0559 0.0234-0.0776 0.0156-0.0219 0.0377-0.0388 0.0664-0.0508 0.0286-0.0119 0.0619-0.0179 0.0999-0.0179 0.0293 0 0.0572 0.00391 0.0837 0.0117 0.0264 0.00753 0.0502 0.0195 0.0714 0.0363 0.0067 0.00488 0.0112 0.0105 0.0134 0.0167 0.00251 0.00642 0.00293 0.0127 0.00112 0.019-0.00153 0.00642-0.00474 0.0117-0.00949 0.0162-0.00446 0.00418-0.01 0.00656-0.0167 0.00725-0.0067 4.19e-4 -0.0138-0.00167-0.0212-0.00614-0.0201-0.0134-0.0406-0.0232-0.0614-0.0296-0.0205-0.00628-0.0407-0.00949-0.0608-0.00949-0.0372 0-0.0656 0.00753-0.0848 0.0223-0.0194 0.0145-0.029 0.0338-0.029 0.0575 0 0.019 0.00586 0.0345 0.0179 0.0463 0.0123 0.012 0.031 0.0205 0.0564 0.0257l0.091 0.019c0.0431 0.00977 0.0755 0.0248 0.0971 0.0452 0.0219 0.0201 0.0329 0.0474 0.0329 0.082 0 0.0439-0.0177 0.079-0.053 0.105-0.0354 0.0261-0.0824 0.0391-0.141 0.0391zm0.537 0c-0.0513 0-0.0957-0.01-0.133-0.0301-0.0368-0.0204-0.0656-0.0492-0.0859-0.0865-0.0205-0.0375-0.0307-0.0823-0.0307-0.134 0-0.0505 0.01-0.0946 0.0301-0.132 0.0201-0.0375 0.0476-0.067 0.0826-0.0882 0.0349-0.0215 0.0755-0.0324 0.122-0.0324 0.0326 0 0.0619 0.00558 0.0876 0.0167 0.0259 0.0109 0.0481 0.0266 0.0664 0.0474 0.0186 0.0205 0.0326 0.0455 0.0424 0.0748 0.00963 0.0294 0.0145 0.0624 0.0145 0.0988 0 0.0109-0.00307 0.0188-0.00893 0.024-6e-3 0.00488-0.0148 0.00725-0.0262 0.00725h-0.348v-0.053h0.329l-0.0162 0.0128c0-0.0357-0.00544-0.066-0.0162-0.091-0.0105-0.0253-0.0259-0.0446-0.0463-0.058-0.0201-0.0134-0.0456-0.0201-0.0765-0.0201-0.0339 0-0.0628 0.00809-0.0865 0.024-0.0234 0.0156-0.0413 0.0372-0.0536 0.0647-0.012 0.0276-0.0179 0.0597-0.0179 0.0965v0.00614c0 0.0614 0.0148 0.108 0.0446 0.14 0.0297 0.0321 0.072 0.048 0.127 0.048 0.0226 0 0.0452-0.00293 0.0675-0.00893 0.0223-0.00628 0.0441-0.0163 0.0653-0.0301 0.00921-0.00586 0.0176-0.00865 0.0251-0.00837 0.00781 0 0.014 0.00223 0.0184 0.0067 0.00474 0.00446 0.00795 0.00991 0.00949 0.0162 0.00181 0.00642 0.00126 0.0133-0.00167 0.0206-0.00307 0.00711-0.00879 0.0134-0.0173 0.019-0.022 0.016-0.048 0.0283-0.0781 0.0368-0.0301 0.00851-0.0597 0.0128-0.0887 0.0128zm0.0208 0c-0.0513 0-0.0957-0.01-0.133-0.0301-0.0368-0.0204-0.0656-0.0492-0.0859-0.0865-0.0205-0.0375-0.0307-0.0823-0.0307-0.134 0-0.0505 0.01-0.0946 0.0301-0.132 0.0201-0.0375 0.0476-0.067 0.0826-0.0882 0.0349-0.0215 0.0755-0.0324 0.122-0.0324 0.0326 0 0.0619 0.00558 0.0876 0.0167 0.0259 0.0109 0.0481 0.0266 0.0664 0.0474 0.0186 0.0205 0.0326 0.0455 0.0424 0.0748 0.00963 0.0294 0.0145 0.0624 0.0145 0.0988 0 0.0109-0.00307 0.0188-0.00893 0.024-6e-3 0.00488-0.0148 0.00725-0.0262 0.00725h-0.348v-0.053h0.329l-0.0162 0.0128c0-0.0357-0.00544-0.066-0.0162-0.091-0.0105-0.0253-0.0259-0.0446-0.0463-0.058-0.0201-0.0134-0.0456-0.0201-0.0765-0.0201-0.0339 0-0.0628 0.00809-0.0865 0.024-0.0234 0.0156-0.0413 0.0372-0.0536 0.0647-0.012 0.0276-0.0179 0.0597-0.0179 0.0965v0.00614c0 0.0614 0.0148 0.108 0.0446 0.14 0.0297 0.0321 0.072 0.048 0.127 0.048 0.0226 0 0.0452-0.00293 0.0675-0.00893 0.0223-0.00628 0.0441-0.0163 0.0653-0.0301 0.00921-0.00586 0.0176-0.00865 0.0251-0.00837 0.00781 0 0.014 0.00223 0.0184 0.0067 0.00474 0.00446 0.00795 0.00991 0.00949 0.0162 0.00181 0.00642 0.00126 0.0133-0.00167 0.0206-0.00307 0.00711-0.00879 0.0134-0.0173 0.019-0.022 0.016-0.048 0.0283-0.0781 0.0368-0.0301 0.00851-0.0597 0.0128-0.0887 0.0128zm0.467 0c-0.0332 0-0.0629-0.00656-0.0893-0.0195-0.0265-0.013-0.0473-0.0308-0.0625-0.0536-0.0153-0.0226-0.0229-0.048-0.0229-0.0759 0-0.036 0.00907-0.0643 0.0273-0.0848 0.0181-0.0208 0.0485-0.0354 0.091-0.0441 0.0424-0.00851 0.1-0.0128 0.174-0.0128h0.0452v0.053h-0.0441c-0.054 0-0.0965 0.00265-0.128 0.00781-0.031 0.00488-0.0525 0.0133-0.0647 0.0251-0.0123 0.012-0.0184 0.0289-0.0184 0.0508 0 0.0276 0.00949 0.0501 0.0285 0.0675 0.019 0.0172 0.0448 0.0257 0.0776 0.0257 0.0264 0 0.0498-0.00628 0.0703-0.019 0.0204-0.0126 0.0364-0.0299 0.048-0.0519 0.0114-0.0223 0.0173-0.0477 0.0173-0.0765v-0.114c0-0.0413-0.00837-0.071-0.0251-0.0893-0.0165-0.0186-0.0435-0.0279-0.0815-0.0279-0.0234 0-0.0469 0.00321-0.0703 0.00949-0.0234 6e-3 -0.048 0.0156-0.0737 0.029-0.00977 0.00446-0.0179 6e-3 -0.0246 0.00446-0.00642-0.00181-0.0116-0.0053-0.0156-0.0106-0.00419-0.00558-0.00656-0.0117-0.00725-0.0184-4.18e-4 -0.00698 0.00112-0.014 0.00446-0.0206 0.00363-0.0067 0.00963-0.012 0.0179-0.0162 0.0293-0.0145 0.0583-0.0251 0.0871-0.0318 0.0286-0.0067 0.0559-0.01 0.082-0.01 0.042 0 0.0766 0.00698 0.104 0.0206 0.0271 0.0134 0.0474 0.034 0.0608 0.0619 0.0134 0.0276 0.0201 0.0631 0.0201 0.107v0.271c0 0.0134-0.00321 0.0239-0.00949 0.0312-0.00642 0.00739-0.0155 0.0112-0.0273 0.0112-0.0127 0-0.0223-0.00377-0.029-0.0112-0.0067-0.00739-0.01-0.0179-0.01-0.0312v-0.0776h0.00893c-0.0053 0.0254-0.0155 0.0469-0.0307 0.0647-0.0149 0.0179-0.0333 0.0318-0.0552 0.0419-0.022 0.01-0.0467 0.0151-0.0742 0.0151zm0.0208 0c-0.0332 0-0.0629-0.00656-0.0893-0.0195-0.0265-0.013-0.0473-0.0308-0.0625-0.0536-0.0153-0.0226-0.0229-0.048-0.0229-0.0759 0-0.036 0.00907-0.0643 0.0273-0.0848 0.0181-0.0208 0.0485-0.0354 0.091-0.0441 0.0424-0.00851 0.1-0.0128 0.174-0.0128h0.0452v0.053h-0.0441c-0.054 0-0.0965 0.00265-0.128 0.00781-0.031 0.00488-0.0525 0.0133-0.0647 0.0251-0.0123 0.012-0.0184 0.0289-0.0184 0.0508 0 0.0276 0.00949 0.0501 0.0285 0.0675 0.019 0.0172 0.0448 0.0257 0.0776 0.0257 0.0264 0 0.0498-0.00628 0.0703-0.019 0.0204-0.0126 0.0364-0.0299 0.048-0.0519 0.0114-0.0223 0.0173-0.0477 0.0173-0.0765v-0.114c0-0.0413-0.00837-0.071-0.0251-0.0893-0.0165-0.0186-0.0435-0.0279-0.0815-0.0279-0.0234 0-0.0469 0.00321-0.0703 0.00949-0.0234 6e-3 -0.048 0.0156-0.0737 0.029-0.00977 0.00446-0.0179 6e-3 -0.0246 0.00446-0.00642-0.00181-0.0116-0.0053-0.0156-0.0106-0.00419-0.00558-0.00656-0.0117-0.00725-0.0184-4.19e-4 -0.00698 0.00112-0.014 0.00446-0.0206 0.00363-0.0067 0.00963-0.012 0.0179-0.0162 0.0293-0.0145 0.0583-0.0251 0.0871-0.0318 0.0286-0.0067 0.0559-0.01 0.082-0.01 0.042 0 0.0766 0.00698 0.104 0.0206 0.0271 0.0134 0.0474 0.034 0.0608 0.0619 0.0134 0.0276 0.0201 0.0631 0.0201 0.107v0.271c0 0.0134-0.00321 0.0239-0.00949 0.0312-0.00642 0.00739-0.0155 0.0112-0.0273 0.0112-0.0127 0-0.0223-0.00377-0.029-0.0112-0.0067-0.00739-0.01-0.0179-0.01-0.0312v-0.0776h0.00893c-0.0053 0.0254-0.0155 0.0469-0.0307 0.0647-0.0149 0.0179-0.0333 0.0318-0.0552 0.0419-0.022 0.01-0.0467 0.0151-0.0742 0.0151z" clip-path="url(#clipPath36)" fill="#fff" aria-label="BBrroowwnnsseeaa"/><g transform="translate(-90.2)" fill="#fff"><path transform="matrix(16,0,0,16,541,232)" d="m0.132 1.14e-4c-0.0144 0-0.0254-0.00391-0.0332-0.0117-0.00781-0.00781-0.0117-0.0188-0.0117-0.0332v-0.615c0-0.0142 0.00391-0.0254 0.0117-0.0332 0.00781-0.00781 0.0188-0.0117 0.0332-0.0117h0.372c0.0117 0 0.0205 0.00342 0.0264 0.00977 0.00586 0.00586 0.00879 0.0142 0.00879 0.0244 0 0.0112-0.00293 0.02-0.00879 0.0264-0.00586 0.00586-0.0146 0.00879-0.0264 0.00879h-0.337v0.244h0.316c0.011 0 0.0195 0.00293 0.0254 0.00879 0.00586 0.00537 0.00879 0.0134 0.00879 0.0244 0 0.0117-0.00293 0.0205-0.00879 0.0264-0.00586 0.00586-0.0144 0.00879-0.0254 0.00879h-0.316v0.254h0.337c0.0117 0 0.0205 0.00342 0.0264 0.00977 0.00586 0.00586 0.00879 0.0142 0.00879 0.0244 0 0.0117-0.00293 0.0205-0.00879 0.0264-0.00586 0.00586-0.0146 0.00879-0.0264 0.00879zm0.699 0.00684c-0.0112 0-0.0212-0.00293-0.0303-0.00879-0.00854-0.00635-0.0156-0.0166-0.0215-0.0303l-0.173-0.403c-0.00464-0.0103-0.00635-0.0198-0.00488-0.0283 0.00122-0.0083 0.00513-0.0151 0.0117-0.0205 0.00635-0.00586 0.0159-0.00879 0.0283-0.00879 0.0103 0 0.0186 0.00269 0.0244 0.00781 0.00586 0.00464 0.0112 0.0127 0.0166 0.0244l0.164 0.401h-0.0273l0.167-0.401c0.0044-0.0117 0.00977-0.0198 0.0156-0.0244 0.00586-0.00513 0.0146-0.00781 0.0264-0.00781 0.0103 0 0.0186 0.00293 0.0244 0.00879 0.00586 0.00537 0.00903 0.0122 0.00977 0.0205 0.00122 0.00781 0 0.0171-0.00391 0.0273l-0.176 0.404c-0.00464 0.0137-0.0115 0.0239-0.0205 0.0303-0.00854 0.00586-0.019 0.00879-0.0313 0.00879zm0.546 0.00195c-0.0515 0-0.0957-0.01-0.133-0.0303-0.0366-0.02-0.0652-0.0488-0.0859-0.0859-0.0203-0.0376-0.0303-0.0825-0.0303-0.135 0-0.0508 0.01-0.0947 0.0303-0.132 0.02-0.0376 0.0474-0.0674 0.082-0.0889 0.0352-0.0215 0.0757-0.0322 0.122-0.0322 0.0325 0 0.0618 0.00562 0.0879 0.0166 0.0259 0.0112 0.0481 0.0271 0.0664 0.0479 0.0181 0.0203 0.0322 0.0454 0.042 0.0752 0.00977 0.0293 0.0146 0.0623 0.0146 0.0986 0 0.0105-0.00342 0.0183-0.00977 0.0234-0.00586 0.00537-0.0144 0.00781-0.0254 0.00781h-0.348v-0.0537h0.328l-0.0156 0.0137c0-0.0364-0.00562-0.0669-0.0166-0.0918-0.0105-0.0247-0.0259-0.0435-0.0459-0.0566-0.0203-0.0137-0.0457-0.0205-0.0762-0.0205-0.0339 0-0.063 0.00781-0.0869 0.0234-0.0234 0.0156-0.0415 0.0376-0.0537 0.0654-0.0117 0.0273-0.0176 0.0593-0.0176 0.0957v0.00586c0 0.0613 0.0146 0.108 0.0439 0.141 0.0298 0.032 0.0723 0.0479 0.127 0.0479 0.0227 0 0.0452-0.00293 0.0674-0.00879 0.0227-0.00635 0.0444-0.0166 0.0654-0.0303 0.00977-0.00586 0.0181-0.0083 0.0254-0.00781 0.00781 0 0.0139 0.00244 0.0186 0.00684 0.00439 0.00391 0.00781 0.00928 0.00977 0.0156 0.00195 0.00586 0.00122 0.0127-0.00195 0.0205-0.00342 0.00732-0.00928 0.0134-0.0176 0.0186-0.0222 0.0164-0.0483 0.0288-0.0781 0.0371-0.03 0.0083-0.0596 0.0127-0.0889 0.0127zm0.353-0.00195c-0.0137 0-0.0239-0.00366-0.0303-0.0107-0.00659-0.00708-0.00977-0.0176-0.00977-0.0312v-0.417c0-0.0129 0.00317-0.0229 0.00977-0.0303 0.00635-0.00708 0.0161-0.0107 0.0293-0.0107 0.0122 0 0.022 0.00366 0.0293 0.0107 0.00708 0.00732 0.0107 0.0173 0.0107 0.0303v0.0859l-0.0117-0.0117c0.0142-0.0383 0.0371-0.0674 0.0684-0.0869 0.0317-0.02 0.0686-0.0303 0.11-0.0303 0.0383 0 0.0703 0.00732 0.0957 0.0215 0.0259 0.0137 0.0452 0.0349 0.0576 0.0635 0.0129 0.0281 0.0195 0.064 0.0195 0.107v0.268c0 0.0137-0.00366 0.0242-0.0107 0.0312-0.00732 0.00708-0.0171 0.0107-0.0293 0.0107-0.0137 0-0.0242-0.00366-0.0312-0.0107-0.00659-0.00708-0.00977-0.0176-0.00977-0.0312v-0.263c0-0.0454-0.00879-0.0786-0.0264-0.0996-0.0176-0.0208-0.0459-0.0312-0.085-0.0312-0.0444 0-0.0798 0.0142-0.106 0.042-0.0261 0.0273-0.0391 0.064-0.0391 0.109v0.242c0 0.0281-0.0137 0.042-0.041 0.042zm0.723 0.00195c-0.0386 0-0.0708-0.00684-0.0967-0.0205-0.0254-0.0137-0.0447-0.0334-0.0576-0.0596-0.0125-0.0266-0.0186-0.0588-0.0186-0.0967v-0.255h-0.0664c-0.0117 0-0.0205-0.00293-0.0264-0.00879-0.00586-0.00586-0.00879-0.0137-0.00879-0.0234 0-0.00977 0.00293-0.0171 0.00879-0.0225 0.00586-0.00586 0.0146-0.00879 0.0264-0.00879h0.0664v-0.114c0-0.0137 0.00342-0.0237 0.0107-0.0303 0.00781-0.00708 0.0178-0.0107 0.0303-0.0107 0.0129 0 0.0227 0.00366 0.0293 0.0107 0.00708 0.00659 0.0107 0.0166 0.0107 0.0303v0.114h0.126c0.0117 0 0.0205 0.00293 0.0264 0.00879 0.00586 0.00537 0.00879 0.0127 0.00879 0.0225 0 0.00977-0.00293 0.0176-0.00879 0.0234-0.00586 0.00586-0.0146 0.00879-0.0264 0.00879h-0.126v0.247c0 0.0378 0.00781 0.0669 0.0234 0.0869 0.0161 0.0195 0.0425 0.0293 0.0791 0.0293 0.0122 0 0.0229-0.00122 0.0322-0.00391 0.00903-0.00317 0.0166-0.00488 0.0225-0.00488 0.00586-4.88e-4 0.0107 0.00171 0.0146 0.00684 0.00439 0.00464 0.00684 0.0125 0.00684 0.0234 0 0.00781-0.00171 0.0154-0.00488 0.0225-0.00342 0.00659-0.00854 0.0112-0.0156 0.0137-0.00781 0.00244-0.0183 0.00488-0.0312 0.00684-0.0132 0.00244-0.0249 0.00391-0.0352 0.00391z" clip-path="url(#clipPath38)" aria-label="Event"/><path transform="matrix(16,0,0,16,588,232)" d="m0.127 0.0069c-0.0117 0-0.0212-0.00342-0.0283-0.00977-0.00659-0.00708-0.00977-0.0171-0.00977-0.0303v-0.639c0-0.0137 0.00317-0.0237 0.00977-0.0303 0.00708-0.00635 0.0166-0.00977 0.0283-0.00977 0.0103 0 0.0188 0.00244 0.0254 0.00684 0.00635 0.00391 0.0122 0.0112 0.0176 0.0215l0.274 0.516h-0.0303l0.272-0.516c0.00586-0.0103 0.0117-0.0176 0.0176-0.0215 0.00586-0.0044 0.0146-0.00684 0.0264-0.00684 0.011 0 0.0198 0.00342 0.0264 0.00977 0.00635 0.00659 0.00977 0.0166 0.00977 0.0303v0.639c0 0.0132-0.00342 0.0232-0.00977 0.0303-0.00586 0.00635-0.0154 0.00977-0.0283 0.00977-0.0117 0-0.021-0.00342-0.0273-0.00977-0.00659-0.00708-0.00977-0.0171-0.00977-0.0303v-0.562h0.0234l-0.25 0.469c-0.00464 0.00854-0.00952 0.0146-0.0146 0.0186-0.00464 0.00391-0.0117 0.00586-0.0215 0.00586-0.00928 0-0.0164-0.00195-0.0215-0.00586-0.00537-0.0044-0.0103-0.0107-0.0146-0.0186l-0.253-0.47h0.0244v0.562c0 0.0132-0.00342 0.0232-0.00977 0.0303-0.00659 0.00635-0.0156 0.00977-0.0273 0.00977zm0.957 0.00195c-0.0332 0-0.0632-0.00659-0.0898-0.0195-0.0261-0.0129-0.0469-0.0305-0.0625-0.0527-0.0151-0.0227-0.0225-0.0481-0.0225-0.0762 0-0.0364 0.00903-0.0647 0.0273-0.085 0.0188-0.0208 0.0493-0.0354 0.0918-0.0439 0.0422-0.00903 0.0999-0.0137 0.173-0.0137h0.0449v0.0537h-0.0439c-0.0542 0-0.0967 0.00269-0.128 0.00781-0.0308 0.00464-0.0522 0.0132-0.0645 0.0254-0.0125 0.0117-0.0186 0.0288-0.0186 0.0508 0 0.0273 0.00928 0.0498 0.0283 0.0674 0.0195 0.0171 0.0454 0.0254 0.0781 0.0254 0.0266 0 0.05-0.0061 0.0703-0.0186 0.02-0.0129 0.0361-0.0305 0.0479-0.0527 0.0117-0.022 0.0176-0.0474 0.0176-0.0762v-0.114c0-0.041-0.00855-0.0706-0.0254-0.0889-0.0164-0.0181-0.0435-0.0273-0.0811-0.0273-0.0234 0-0.0469 0.00293-0.0703 0.00879s-0.0483 0.0156-0.0742 0.0293c-0.00928 0.00464-0.0173 0.00635-0.0244 0.00488-0.00659-0.00195-0.0117-0.00537-0.0156-0.0107-0.00391-0.00586-0.00635-0.012-0.00684-0.0186-7.32e-4 -0.00708 4.88e-4 -0.0139 0.00391-0.0205 0.00391-0.00708 0.00977-0.0127 0.0176-0.0166 0.0298-0.0142 0.0591-0.0247 0.0879-0.0312 0.0286-0.00708 0.0559-0.0107 0.082-0.0107 0.0415 0 0.0762 0.00684 0.104 0.0205 0.0273 0.0137 0.0474 0.0347 0.0605 0.0625 0.0137 0.0273 0.0205 0.063 0.0205 0.106v0.271c0 0.0137-0.00342 0.0242-0.00977 0.0312-0.00659 0.00708-0.0156 0.0107-0.0273 0.0107-0.0125 0-0.0222-0.00366-0.0293-0.0107-0.00659-0.00708-0.00977-0.0176-0.00977-0.0312v-0.0781h0.00879c-0.00537 0.0254-0.0154 0.0474-0.0303 0.0654-0.0151 0.0176-0.0337 0.0317-0.0557 0.042-0.0222 0.00977-0.0469 0.0146-0.0742 0.0146zm0.418-0.00195c-0.0137 0-0.0239-0.00366-0.0303-0.0107-0.00659-0.00708-0.00977-0.0176-0.00977-0.0312v-0.417c0-0.0129 0.00317-0.0229 0.00977-0.0303 0.00635-0.00708 0.0161-0.0107 0.0293-0.0107 0.0122 0 0.022 0.00366 0.0293 0.0107 0.00708 0.00732 0.0107 0.0173 0.0107 0.0303v0.0859l-0.0117-0.0117c0.0142-0.0383 0.0371-0.0674 0.0684-0.0869 0.0317-0.02 0.0686-0.0303 0.11-0.0303 0.0383 0 0.0703 0.00732 0.0957 0.0215 0.0259 0.0137 0.0452 0.0349 0.0576 0.0635 0.0129 0.0281 0.0195 0.064 0.0195 0.107v0.268c0 0.0137-0.00366 0.0242-0.0107 0.0312-0.00732 0.00708-0.0171 0.0107-0.0293 0.0107-0.0137 0-0.0242-0.00366-0.0312-0.0107-0.00659-0.00708-0.00977-0.0176-0.00977-0.0312v-0.263c0-0.0454-0.00879-0.0786-0.0264-0.0996-0.0176-0.0208-0.0459-0.0312-0.085-0.0312-0.0444 0-0.0798 0.0142-0.106 0.042-0.0261 0.0273-0.0391 0.064-0.0391 0.109v0.242c0 0.0281-0.0137 0.042-0.041 0.042zm0.679 0.00195c-0.0332 0-0.0632-0.00659-0.0898-0.0195-0.0261-0.0129-0.0469-0.0305-0.0625-0.0527-0.0151-0.0227-0.0225-0.0481-0.0225-0.0762 0-0.0364 0.00903-0.0647 0.0273-0.085 0.0188-0.0208 0.0493-0.0354 0.0918-0.0439 0.0422-0.00903 0.0999-0.0137 0.173-0.0137h0.0449v0.0537h-0.0439c-0.0542 0-0.0967 0.00269-0.128 0.00781-0.0308 0.00464-0.0522 0.0132-0.0645 0.0254-0.0125 0.0117-0.0186 0.0288-0.0186 0.0508 0 0.0273 0.00928 0.0498 0.0283 0.0674 0.0195 0.0171 0.0454 0.0254 0.0781 0.0254 0.0266 0 0.05-0.0061 0.0703-0.0186 0.02-0.0129 0.0361-0.0305 0.0479-0.0527 0.0117-0.022 0.0176-0.0474 0.0176-0.0762v-0.114c0-0.041-0.00854-0.0706-0.0254-0.0889-0.0164-0.0181-0.0435-0.0273-0.0811-0.0273-0.0234 0-0.0469 0.00293-0.0703 0.00879s-0.0483 0.0156-0.0742 0.0293c-0.00928 0.00464-0.0173 0.00635-0.0244 0.00488-0.00659-0.00195-0.0117-0.00537-0.0156-0.0107-0.00391-0.00586-0.00635-0.012-0.00684-0.0186-7.32e-4 -0.00708 4.88e-4 -0.0139 0.00391-0.0205 0.00391-0.00708 0.00977-0.0127 0.0176-0.0166 0.0298-0.0142 0.0591-0.0247 0.0879-0.0312 0.0286-0.00708 0.0559-0.0107 0.082-0.0107 0.0415 0 0.0762 0.00684 0.104 0.0205 0.0273 0.0137 0.0474 0.0347 0.0605 0.0625 0.0137 0.0273 0.0205 0.063 0.0205 0.106v0.271c0 0.0137-0.00342 0.0242-0.00977 0.0312-0.00659 0.00708-0.0156 0.0107-0.0273 0.0107-0.0125 0-0.0222-0.00366-0.0293-0.0107-0.00659-0.00708-0.00977-0.0176-0.00977-0.0312v-0.0781h0.00879c-0.00537 0.0254-0.0154 0.0474-0.0303 0.0654-0.0151 0.0176-0.0337 0.0317-0.0557 0.042-0.0222 0.00977-0.0469 0.0146-0.0742 0.0146zm0.593 0.181c-0.0352 0-0.0698-0.0044-0.104-0.0127-0.0339-0.00854-0.0645-0.022-0.0918-0.04-0.00781-0.00464-0.0132-0.0103-0.0156-0.0166-0.00195-0.00659-0.00244-0.0132-9.76e-4 -0.0195 0.00122-0.00659 0.00415-0.0125 0.00879-0.0176 0.00439-0.00464 0.01-0.00757 0.0166-0.00879 0.00635-0.00146 0.0129-4.88e-4 0.0195 0.00293 0.0293 0.0176 0.0571 0.0295 0.084 0.0361 0.0266 0.00708 0.053 0.0107 0.0791 0.0107 0.0474 0 0.0833-0.0127 0.107-0.0381 0.0239-0.0254 0.0361-0.0623 0.0361-0.11v-0.112h0.0107c-0.0105 0.0386-0.032 0.0691-0.0645 0.0918-0.032 0.0229-0.0698 0.0342-0.113 0.0342-0.0444 0-0.083-0.01-0.116-0.0303-0.0327-0.0208-0.0576-0.0493-0.0752-0.0859-0.0176-0.0364-0.0264-0.0786-0.0264-0.127 0-0.0356 0.00488-0.0686 0.0146-0.0986 0.0103-0.0298 0.0249-0.0552 0.0439-0.0762 0.0188-0.0208 0.0415-0.0371 0.0684-0.0488 0.0273-0.0117 0.0576-0.0176 0.0908-0.0176 0.0442 0 0.0823 0.0115 0.114 0.0342 0.0317 0.0222 0.0527 0.0522 0.0625 0.0898l-0.0107 0.0117v-0.0928c0-0.0129 0.00342-0.0229 0.0107-0.0303 0.00708-0.00708 0.0168-0.0107 0.0293-0.0107 0.0137 0 0.0237 0.00366 0.0303 0.0107 0.00635 0.00732 0.00977 0.0173 0.00977 0.0303v0.417c0 0.0742-0.0186 0.13-0.0557 0.168-0.0366 0.0376-0.0908 0.0566-0.163 0.0566zm-0.0117-0.267c0.0312 0 0.0579-0.00708 0.0801-0.0215 0.0227-0.0142 0.0403-0.0347 0.0527-0.0615 0.0122-0.0266 0.0186-0.0579 0.0186-0.0938 0-0.054-0.0137-0.0967-0.041-0.128-0.0273-0.0317-0.0642-0.0479-0.11-0.0479-0.0308 0-0.0574 0.00732-0.0801 0.0215-0.0229 0.0144-0.0405 0.0349-0.0527 0.0615-0.0125 0.0261-0.0186 0.0571-0.0186 0.0928 0 0.0542 0.0137 0.0972 0.041 0.129 0.0273 0.032 0.064 0.0479 0.11 0.0479zm0.602 0.0859c-0.0515 0-0.0957-0.01-0.133-0.0303-0.0366-0.02-0.0652-0.0488-0.0859-0.0859-0.0203-0.0376-0.0303-0.0825-0.0303-0.135 0-0.0508 0.01-0.0947 0.0303-0.132 0.02-0.0376 0.0474-0.0674 0.082-0.0889 0.0352-0.0215 0.0757-0.0322 0.122-0.0322 0.0325 0 0.0618 0.00562 0.0879 0.0166 0.0259 0.0112 0.0481 0.0271 0.0664 0.0479 0.0181 0.0203 0.0322 0.0454 0.042 0.0752 0.00977 0.0293 0.0146 0.0623 0.0146 0.0986 0 0.0105-0.00342 0.0183-0.00977 0.0234-0.00586 0.00537-0.0144 0.00781-0.0254 0.00781h-0.348v-0.0537h0.328l-0.0156 0.0137c0-0.0364-0.00562-0.0669-0.0166-0.0918-0.0105-0.0247-0.0259-0.0435-0.0459-0.0566-0.0203-0.0137-0.0457-0.0205-0.0762-0.0205-0.0339 0-0.063 0.00781-0.0869 0.0234-0.0234 0.0156-0.0415 0.0376-0.0537 0.0654-0.0117 0.0273-0.0176 0.0593-0.0176 0.0957v0.00586c0 0.0613 0.0146 0.108 0.0439 0.141 0.0298 0.032 0.0723 0.0479 0.127 0.0479 0.0227 0 0.0452-0.00293 0.0674-0.00879 0.0227-0.00635 0.0444-0.0166 0.0654-0.0303 0.00977-0.00586 0.0181-0.0083 0.0254-0.00781 0.00781 0 0.0139 0.00244 0.0186 0.00684 0.00439 0.00391 0.00781 0.00928 0.00977 0.0156 0.00195 0.00586 0.00122 0.0127-0.00195 0.0205-0.00342 0.00732-0.00928 0.0134-0.0176 0.0186-0.0222 0.0164-0.0483 0.0288-0.0781 0.0371-0.03 0.0083-0.0596 0.0127-0.0889 0.0127zm0.355-0.00195c-0.0137 0-0.0239-0.00366-0.0303-0.0107-0.00659-0.00708-0.00977-0.0176-0.00977-0.0312v-0.417c0-0.0129 0.00317-0.0229 0.00977-0.0303 0.00635-0.00708 0.0161-0.0107 0.0293-0.0107 0.0122 0 0.022 0.00366 0.0293 0.0107 0.00708 0.00732 0.0107 0.0173 0.0107 0.0303v0.0879l-0.0107-0.0137c0.0122-0.0371 0.0325-0.0657 0.0605-0.0859 0.0286-0.0208 0.0625-0.0312 0.102-0.0312 0.0415 0 0.0752 0.0103 0.101 0.0303 0.0259 0.0195 0.0432 0.0498 0.0518 0.0908h-0.0146c0.0117-0.0371 0.0327-0.0664 0.0635-0.0879 0.0312-0.022 0.0676-0.0332 0.109-0.0332 0.0364 0 0.0664 0.00732 0.0898 0.0215 0.0239 0.0137 0.042 0.0349 0.0537 0.0635 0.0122 0.0281 0.0186 0.064 0.0186 0.107v0.268c0 0.0137-0.00366 0.0242-0.0107 0.0312-0.00732 0.00708-0.0173 0.0107-0.0303 0.0107-0.0132 0-0.0232-0.00366-0.0303-0.0107-0.00659-0.00708-0.00977-0.0176-0.00977-0.0312v-0.264c0-0.0449-0.00781-0.0776-0.0234-0.0986-0.0151-0.0208-0.041-0.0312-0.0781-0.0312-0.0398 0-0.0713 0.0142-0.0947 0.042-0.0229 0.0273-0.0342 0.0645-0.0342 0.111v0.24c0 0.0137-0.00366 0.0242-0.0107 0.0312-0.00659 0.00708-0.0166 0.0107-0.0303 0.0107-0.0125 0-0.0222-0.00366-0.0293-0.0107-0.00732-0.00708-0.0107-0.0176-0.0107-0.0312v-0.264c0-0.0449-0.00781-0.0776-0.0234-0.0986-0.0156-0.0208-0.0415-0.0312-0.0771-0.0312-0.0405 0-0.072 0.0142-0.0947 0.042-0.0229 0.0273-0.0342 0.0645-0.0342 0.111v0.24c0 0.0281-0.0137 0.042-0.041 0.042zm1.03 0.00195c-0.0515 0-0.0957-0.01-0.133-0.0303-0.0366-0.02-0.0652-0.0488-0.0859-0.0859-0.0203-0.0376-0.0303-0.0825-0.0303-0.135 0-0.0508 0.01-0.0947 0.0303-0.132 0.02-0.0376 0.0474-0.0674 0.082-0.0889 0.0352-0.0215 0.0757-0.0322 0.122-0.0322 0.0325 0 0.0618 0.00562 0.0879 0.0166 0.0259 0.0112 0.0481 0.0271 0.0664 0.0479 0.0181 0.0203 0.0322 0.0454 0.042 0.0752 0.00977 0.0293 0.0146 0.0623 0.0146 0.0986 0 0.0105-0.00342 0.0183-0.00977 0.0234-0.00586 0.00537-0.0144 0.00781-0.0254 0.00781h-0.348v-0.0537h0.328l-0.0156 0.0137c0-0.0364-0.00562-0.0669-0.0166-0.0918-0.0105-0.0247-0.0259-0.0435-0.0459-0.0566-0.0203-0.0137-0.0457-0.0205-0.0762-0.0205-0.0339 0-0.063 0.00781-0.0869 0.0234-0.0234 0.0156-0.0415 0.0376-0.0537 0.0654-0.0117 0.0273-0.0176 0.0593-0.0176 0.0957v0.00586c0 0.0613 0.0146 0.108 0.0439 0.141 0.0298 0.032 0.0723 0.0479 0.127 0.0479 0.0227 0 0.0452-0.00293 0.0674-0.00879 0.0227-0.00635 0.0444-0.0166 0.0654-0.0303 0.00977-0.00586 0.0181-0.0083 0.0254-0.00781 0.00781 0 0.0139 0.00244 0.0186 0.00684 0.00439 0.00391 0.00781 0.00928 0.00977 0.0156 0.00195 0.00586 0.00122 0.0127-0.00195 0.0205-0.00342 0.00732-0.00928 0.0134-0.0176 0.0186-0.0222 0.0164-0.0483 0.0288-0.0781 0.0371-0.03 0.0083-0.0596 0.0127-0.0889 0.0127zm0.354-0.00195c-0.0137 0-0.0239-0.00366-0.0303-0.0107-0.00659-0.00708-0.00977-0.0176-0.00977-0.0312v-0.417c0-0.0129 0.00317-0.0229 0.00977-0.0303 0.00635-0.00708 0.0161-0.0107 0.0293-0.0107 0.0122 0 0.022 0.00366 0.0293 0.0107 0.00708 0.00732 0.0107 0.0173 0.0107 0.0303v0.0859l-0.0117-0.0117c0.0142-0.0383 0.0371-0.0674 0.0684-0.0869 0.0317-0.02 0.0686-0.0303 0.11-0.0303 0.0383 0 0.0703 0.00732 0.0957 0.0215 0.0259 0.0137 0.0452 0.0349 0.0576 0.0635 0.0129 0.0281 0.0195 0.064 0.0195 0.107v0.268c0 0.0137-0.00366 0.0242-0.0107 0.0312-0.00732 0.00708-0.0171 0.0107-0.0293 0.0107-0.0137 0-0.0242-0.00366-0.0312-0.0107-0.00659-0.00708-0.00977-0.0176-0.00977-0.0312v-0.263c0-0.0454-0.00879-0.0786-0.0264-0.0996-0.0176-0.0208-0.0459-0.0312-0.085-0.0312-0.0444 0-0.0798 0.0142-0.106 0.042-0.0261 0.0273-0.0391 0.064-0.0391 0.109v0.242c0 0.0281-0.0137 0.042-0.041 0.042zm0.722 0.00195c-0.0386 0-0.0708-0.00684-0.0967-0.0205-0.0254-0.0137-0.0447-0.0334-0.0576-0.0596-0.0125-0.0266-0.0186-0.0588-0.0186-0.0967v-0.255h-0.0664c-0.0117 0-0.0205-0.00293-0.0264-0.00879-0.00586-0.00586-0.00879-0.0137-0.00879-0.0234 0-0.00977 0.00293-0.0171 0.00879-0.0225 0.00586-0.00586 0.0146-0.00879 0.0264-0.00879h0.0664v-0.114c0-0.0137 0.00342-0.0237 0.0107-0.0303 0.00781-0.00708 0.0178-0.0107 0.0303-0.0107 0.0129 0 0.0227 0.00366 0.0293 0.0107 0.00708 0.00659 0.0107 0.0166 0.0107 0.0303v0.114h0.126c0.0117 0 0.0205 0.00293 0.0264 0.00879 0.00586 0.00537 0.00879 0.0127 0.00879 0.0225 0 0.00977-0.00293 0.0176-0.00879 0.0234-0.00586 0.00586-0.0146 0.00879-0.0264 0.00879h-0.126v0.247c0 0.0378 0.00781 0.0669 0.0234 0.0869 0.0161 0.0195 0.0425 0.0293 0.0791 0.0293 0.0122 0 0.0229-0.00122 0.0322-0.00391 0.00903-0.00317 0.0166-0.00488 0.0225-0.00488 0.00586-4.88e-4 0.0107 0.00171 0.0146 0.00684 0.00439 0.00464 0.00684 0.0125 0.00684 0.0234 0 0.00781-0.00171 0.0154-0.00488 0.0225-0.00342 0.00659-0.00854 0.0112-0.0156 0.0137-0.00781 0.00244-0.0183 0.00488-0.0312 0.00684-0.0132 0.00244-0.0249 0.00391-0.0352 0.00391z" clip-path="url(#clipPath40)" aria-label="Management"/><path transform="matrix(16,0,0,16,688,232)" d="m0.315 0.00881c-0.032 0-0.063-0.00269-0.0928-0.00781-0.03-0.00513-0.0581-0.0127-0.084-0.0225-0.0254-0.0103-0.0483-0.0229-0.0684-0.0381-0.00854-0.00635-0.0144-0.0132-0.0176-0.0205-0.00269-0.00781-0.00342-0.0156-0.00195-0.0234 0.00195-0.00781 0.00537-0.0142 0.0107-0.0195 0.00513-0.00513 0.0112-0.00806 0.0186-0.00879 0.00708-4.88e-4 0.0149 0.00171 0.0234 0.00684 0.0305 0.0215 0.0627 0.0371 0.0967 0.0469 0.0337 0.00928 0.0723 0.0137 0.115 0.0137 0.0598 0 0.104-0.011 0.133-0.0332 0.0293-0.022 0.0439-0.0513 0.0439-0.0879 0-0.0305-0.0107-0.0542-0.0322-0.0713-0.021-0.0168-0.0557-0.0303-0.104-0.04l-0.104-0.0215c-0.0625-0.0129-0.109-0.0344-0.141-0.0645-0.0308-0.0305-0.0459-0.0713-0.0459-0.122 0-0.0312 0.0061-0.0596 0.0186-0.085 0.0122-0.0259 0.0298-0.0481 0.0527-0.0664 0.0227-0.0181 0.0498-0.0322 0.0811-0.042 0.0312-0.0103 0.0659-0.0156 0.104-0.0156 0.0415 0 0.0806 0.00586 0.117 0.0176 0.0364 0.0117 0.0693 0.0293 0.0986 0.0527 0.00708 0.00586 0.012 0.0127 0.0146 0.0205 0.00244 0.00732 0.00293 0.0144 9.77e-4 0.0215-0.00195 0.00732-0.00562 0.0132-0.0107 0.0176-0.00464 0.00464-0.0107 0.00732-0.0186 0.00781-0.00781 7.32e-4 -0.0164-0.00195-0.0254-0.00781-0.0269-0.02-0.0544-0.0344-0.083-0.043-0.0288-0.00903-0.0603-0.0137-0.0947-0.0137-0.0359 0-0.0664 0.00537-0.0918 0.0156-0.0254 0.0105-0.0454 0.0261-0.0596 0.0469-0.0144 0.0203-0.0215 0.0437-0.0215 0.0703 0 0.032 0.00977 0.0574 0.0293 0.0762 0.0195 0.0183 0.0518 0.032 0.0967 0.041l0.104 0.0215c0.0669 0.0144 0.117 0.0359 0.149 0.0645 0.0325 0.0281 0.0488 0.0662 0.0488 0.114 0 0.0293-0.00635 0.0564-0.0186 0.0811-0.0117 0.0249-0.0291 0.0464-0.0518 0.0645-0.0229 0.0176-0.0503 0.031-0.082 0.04-0.032 0.00903-0.0679 0.0137-0.107 0.0137zm0.478 0.178c-0.00977 0-0.0176-0.00269-0.0234-0.00781-0.00586-0.00537-0.00952-0.0125-0.0107-0.0215-7.32e-4 -0.00928 9.77e-4 -0.0183 0.00488-0.0273l0.0684-0.155v0.0352l-0.191-0.445c-0.00391-0.0103-0.00537-0.0198-0.00391-0.0283 0.00122-0.0083 0.00513-0.0151 0.0117-0.0205 0.00635-0.00586 0.0159-0.00879 0.0283-0.00879 0.0103 0 0.0186 0.00269 0.0244 0.00781 0.00586 0.00464 0.0112 0.0127 0.0166 0.0244l0.164 0.402h-0.0273l0.166-0.402c0.00513-0.0117 0.0107-0.0198 0.0166-0.0244 0.00586-0.00513 0.0146-0.00781 0.0264-0.00781 0.0103 0 0.0186 0.00293 0.0244 0.00879 0.00586 0.00537 0.00903 0.0122 0.00977 0.0205 0.00122 0.00781 0 0.0171-0.00391 0.0273l-0.257 0.592c-0.00537 0.0117-0.0112 0.0198-0.0176 0.0244-0.00586 0.0044-0.0146 0.00684-0.0264 0.00684zm0.561-0.178c-0.03 0-0.0603-0.00366-0.0908-0.0107-0.0308-0.00708-0.0586-0.0198-0.084-0.0381-0.00732-0.00439-0.0122-0.01-0.0146-0.0166-0.00269-0.00635-0.00366-0.0127-0.00293-0.0186 0.00122-0.00635 0.00415-0.012 0.00879-0.0166 0.00439-0.00439 0.00977-0.00708 0.0156-0.00781 0.00635-0.00122 0.0137 0 0.0215 0.00391 0.0259 0.0156 0.051 0.0269 0.0752 0.0332 0.0247 0.00659 0.0491 0.00977 0.0732 0.00977 0.0376 0 0.0664-0.00684 0.0859-0.0205 0.0195-0.0142 0.0293-0.0334 0.0293-0.0576 0-0.0188-0.00659-0.0337-0.0195-0.0449-0.0125-0.011-0.0322-0.0195-0.0596-0.0254l-0.0918-0.0195c-0.0417-0.00903-0.0728-0.0239-0.0928-0.0449-0.0203-0.0215-0.0303-0.0491-0.0303-0.083 0-0.0298 0.00781-0.0557 0.0234-0.0771 0.0156-0.022 0.0376-0.0391 0.0664-0.0508 0.0286-0.0122 0.0618-0.0186 0.0996-0.0186 0.0293 0 0.0569 0.00391 0.083 0.0117 0.0266 0.00781 0.0508 0.02 0.0723 0.0361 0.00635 0.00464 0.0107 0.0103 0.0127 0.0166 0.00244 0.00659 0.00293 0.0132 9.76e-4 0.0195-0.00146 0.00586-0.00439 0.0112-0.00879 0.0156-0.00464 0.00464-0.0105 0.00732-0.0176 0.00781-0.00659 7.32e-4 -0.0134-0.00122-0.0205-0.00586-0.0203-0.0137-0.0408-0.0234-0.0615-0.0293-0.0203-0.00635-0.0405-0.00977-0.0605-0.00977-0.0371 0-0.0654 0.00757-0.085 0.0225-0.0195 0.0144-0.0293 0.0337-0.0293 0.0576 0 0.0183 0.00586 0.0337 0.0176 0.0459 0.0122 0.0117 0.0312 0.0203 0.0566 0.0254l0.0908 0.0195c0.0435 0.00928 0.0762 0.0242 0.0977 0.0449 0.0215 0.0203 0.0322 0.0476 0.0322 0.082 0 0.0437-0.0176 0.0786-0.0527 0.104-0.0352 0.0261-0.082 0.0391-0.141 0.0391zm0.508 0c-0.0386 0-0.0708-0.00684-0.0967-0.0205-0.0254-0.0137-0.0447-0.0334-0.0576-0.0596-0.0125-0.0266-0.0186-0.0588-0.0186-0.0967v-0.255h-0.0664c-0.0117 0-0.0205-0.00293-0.0264-0.00879-0.00586-0.00586-0.00879-0.0137-0.00879-0.0234 0-0.00977 0.00293-0.0171 0.00879-0.0225 0.00586-0.00586 0.0146-0.00879 0.0264-0.00879h0.0664v-0.114c0-0.0137 0.00342-0.0237 0.0107-0.0303 0.00781-0.00708 0.0178-0.0107 0.0303-0.0107 0.0129 0 0.0227 0.00366 0.0293 0.0107 0.00708 0.00659 0.0107 0.0166 0.0107 0.0303v0.114h0.126c0.0117 0 0.0205 0.00293 0.0264 0.00879 0.00586 0.00537 0.00879 0.0127 0.00879 0.0225 0 0.00977-0.00293 0.0176-0.00879 0.0234-0.00586 0.00586-0.0146 0.00879-0.0264 0.00879h-0.126v0.247c0 0.0378 0.00781 0.0669 0.0234 0.0869 0.0161 0.0195 0.0425 0.0293 0.0791 0.0293 0.0122 0 0.0229-0.00122 0.0322-0.00391 0.00903-0.00317 0.0166-0.00488 0.0225-0.00488 0.00586-4.88e-4 0.0107 0.00171 0.0146 0.00684 0.00439 0.00464 0.00684 0.0125 0.00684 0.0234 0 0.00781-0.00171 0.0154-0.00488 0.0225-0.00342 0.00659-0.00854 0.0112-0.0156 0.0137-0.00781 0.00244-0.0183 0.00488-0.0312 0.00684-0.0132 0.00244-0.0249 0.00391-0.0352 0.00391zm0.368 0c-0.0515 0-0.0957-0.01-0.133-0.0303-0.0366-0.02-0.0652-0.0488-0.0859-0.0859-0.0203-0.0376-0.0303-0.0825-0.0303-0.135 0-0.0508 0.01-0.0947 0.0303-0.132 0.02-0.0376 0.0474-0.0674 0.082-0.0889 0.0352-0.0215 0.0757-0.0322 0.122-0.0322 0.0325 0 0.0618 0.00562 0.0879 0.0166 0.0259 0.0112 0.0481 0.0271 0.0664 0.0479 0.0181 0.0203 0.0322 0.0454 0.042 0.0752 0.00977 0.0293 0.0146 0.0623 0.0146 0.0986 0 0.0105-0.00342 0.0183-0.00977 0.0234-0.00586 0.00537-0.0144 0.00781-0.0254 0.00781h-0.348v-0.0537h0.328l-0.0156 0.0137c0-0.0364-0.00562-0.0669-0.0166-0.0918-0.0105-0.0247-0.0259-0.0435-0.0459-0.0566-0.0203-0.0137-0.0457-0.0205-0.0762-0.0205-0.0339 0-0.063 0.00781-0.0869 0.0234-0.0234 0.0156-0.0415 0.0376-0.0537 0.0654-0.0117 0.0273-0.0176 0.0593-0.0176 0.0957v0.00586c0 0.0613 0.0146 0.108 0.0439 0.141 0.0298 0.032 0.0723 0.0479 0.127 0.0479 0.0227 0 0.0452-0.00293 0.0674-0.00879 0.0227-0.00635 0.0444-0.0166 0.0654-0.0303 0.00977-0.00586 0.0181-0.0083 0.0254-0.00781 0.00781 0 0.0139 0.00244 0.0186 0.00684 0.00439 0.00391 0.00781 0.00928 0.00977 0.0156 0.00195 0.00586 0.00122 0.0127-0.00195 0.0205-0.00342 0.00732-0.00928 0.0134-0.0176 0.0186-0.0222 0.0164-0.0483 0.0288-0.0781 0.0371-0.03 0.0083-0.0596 0.0127-0.0889 0.0127zm0.355-0.00195c-0.0137 0-0.0239-0.00366-0.0303-0.0107-0.00659-0.00708-0.00977-0.0176-0.00977-0.0312v-0.417c0-0.0129 0.00317-0.0229 0.00977-0.0303 0.00635-0.00708 0.0161-0.0107 0.0293-0.0107 0.0122 0 0.022 0.00366 0.0293 0.0107 0.00708 0.00732 0.0107 0.0173 0.0107 0.0303v0.0879l-0.0107-0.0137c0.0122-0.0371 0.0325-0.0657 0.0605-0.0859 0.0286-0.0208 0.0625-0.0312 0.102-0.0312 0.0415 0 0.0752 0.0103 0.101 0.0303 0.0259 0.0195 0.0432 0.0498 0.0518 0.0908h-0.0146c0.0117-0.0371 0.0327-0.0664 0.0635-0.0879 0.0312-0.022 0.0676-0.0332 0.109-0.0332 0.0364 0 0.0664 0.00732 0.0898 0.0215 0.0239 0.0137 0.042 0.0349 0.0537 0.0635 0.0122 0.0281 0.0186 0.064 0.0186 0.107v0.268c0 0.0137-0.00366 0.0242-0.0107 0.0312-0.00732 0.00708-0.0173 0.0107-0.0303 0.0107-0.0132 0-0.0232-0.00366-0.0303-0.0107-0.00659-0.00708-0.00977-0.0176-0.00977-0.0312v-0.264c0-0.0449-0.00781-0.0776-0.0234-0.0986-0.0151-0.0208-0.041-0.0312-0.0781-0.0312-0.0398 0-0.0713 0.0142-0.0947 0.042-0.0229 0.0273-0.0342 0.0645-0.0342 0.111v0.24c0 0.0137-0.00366 0.0242-0.0107 0.0312-0.00659 0.00708-0.0166 0.0107-0.0303 0.0107-0.0125 0-0.0222-0.00366-0.0293-0.0107-0.00732-0.00708-0.0107-0.0176-0.0107-0.0312v-0.264c0-0.0449-0.00781-0.0776-0.0234-0.0986-0.0156-0.0208-0.0415-0.0312-0.0771-0.0312-0.0405 0-0.072 0.0142-0.0947 0.042-0.0229 0.0273-0.0342 0.0645-0.0342 0.111v0.24c0 0.0281-0.0137 0.042-0.041 0.042z" clip-path="url(#clipPath42)" aria-label="System"/></g></g></g></svg>
