<?xml version="1.0" encoding="UTF-8"?>
<svg width="320mm" height="70mm" version="1.1" viewBox="0 0 320 70" xmlns="http://www.w3.org/2000/svg"><text x="-113.17628" y="-44.653316" fill="#000000" font-family="sans-serif" font-size="10.2px" stroke-width=".254" style="line-height:1.25" xml:space="preserve"><tspan x="-113.17628" y="-44.653316" stroke-width=".254"/></text><rect width="320" height="70" stroke-width=".448"/><g transform="translate(4.62 5)" fill="#da3749"><g transform="matrix(.972 0 0 .972 -51.8 -30.5)" stroke-width="1.25" aria-label="RadioActiv8"><path d="m53.3 42.4h7.3q7.3 0 9.87 0.563 2.59 0.563 4.21 2.89 1.64 2.3 1.64 7.37 0 4.63-1.15 6.22-1.15 1.59-4.53 1.91 3.06 0.759 4.11 2.03t1.3 2.35q0.269 1.05 0.269 5.85v10.5h-9.57v-13.2q0-3.18-0.514-3.94-0.49-0.759-2.62-0.759v17.9h-10.3zm10.3 6.78v8.81q1.74 0 2.42-0.465 0.71-0.49 0.71-3.11v-2.18q0-1.88-0.685-2.47-0.661-0.588-2.45-0.588z"/><path d="m88.9 62.1h-9.28v-2.18q0-3.77 0.857-5.8 0.881-2.06 3.5-3.62 2.62-1.57 6.81-1.57 5.02 0 7.56 1.79 2.55 1.76 3.06 4.36 0.514 2.57 0.514 10.6v16.3h-9.62v-2.89q-0.906 1.74-2.35 2.62-1.42 0.857-3.4 0.857-2.59 0-4.77-1.44-2.15-1.47-2.15-6.39v-2.67q0-3.65 1.15-4.97 1.15-1.32 5.7-3.08 4.87-1.91 5.21-2.57 0.343-0.661 0.343-2.69 0-2.55-0.392-3.3-0.367-0.783-1.25-0.783-1 0-1.25 0.661-0.245 0.636-0.245 3.35zm3.13 4.46q-2.37 1.74-2.77 2.91-0.367 1.18-0.367 3.38 0 2.52 0.318 3.26 0.343 0.734 1.32 0.734 0.93 0 1.2-0.563 0.294-0.588 0.294-3.04z"/><path d="m128 42.4v39.6h-9.89v-2.35q-1.42 1.47-2.99 2.2-1.57 0.734-3.28 0.734-2.3 0-3.99-1.2-1.69-1.22-2.18-2.82-0.465-1.59-0.465-5.19v-15.2q0-3.75 0.465-5.31 0.49-1.57 2.2-2.74 1.71-1.2 4.09-1.2 1.84 0 3.35 0.661 1.54 0.661 2.79 1.98v-9.2zm-9.89 15.3q0-1.79-0.318-2.4-0.294-0.612-1.2-0.612-0.881 0-1.2 0.563-0.294 0.539-0.294 2.45v15.9q0 1.98 0.294 2.62 0.294 0.612 1.13 0.612 0.955 0 1.27-0.685 0.318-0.71 0.318-3.43z"/><path d="m142 42.4v5.17h-10.2v-5.17zm0 7.15v32.5h-10.2v-32.5z"/><path d="m167 61v7.96q0 4.38-0.441 6.44-0.441 2.03-1.88 3.82-1.44 1.76-3.72 2.62-2.25 0.832-5.19 0.832-3.28 0-5.56-0.71-2.28-0.734-3.55-2.18-1.25-1.47-1.79-3.53-0.539-2.08-0.539-6.22v-8.32q0-4.53 0.979-7.07 0.979-2.55 3.53-4.09 2.55-1.54 6.51-1.54 3.33 0 5.7 1 2.4 0.979 3.7 2.57 1.3 1.59 1.76 3.28 0.49 1.69 0.49 5.14zm-9.89-2.45q0-2.5-0.269-3.13-0.269-0.661-1.15-0.661-0.881 0-1.18 0.661-0.294 0.636-0.294 3.13v14.7q0 2.3 0.294 3.01 0.294 0.685 1.15 0.685 0.881 0 1.15-0.636 0.294-0.636 0.294-2.74z"/><path d="m189 42.4 5.9 39.6h-10.6l-0.514-7.12h-3.7l-0.612 7.12h-10.7l5.24-39.6zm-5.46 25.5q-0.783-6.73-1.57-16.6-1.57 11.4-1.96 16.6z"/><path d="m218 61.8h-9.33v-3.75q0-1.96-0.318-2.64-0.318-0.71-1.18-0.71-0.857 0-1.15 0.612t-0.294 2.74v15.3q0 1.74 0.441 2.62 0.441 0.857 1.3 0.857 1 0 1.35-0.906 0.367-0.906 0.367-3.43v-3.87h8.81q-0.0245 3.89-0.294 5.85-0.245 1.93-1.64 3.99-1.37 2.03-3.6 3.08-2.23 1.03-5.51 1.03-4.19 0-6.63-1.42-2.45-1.44-3.48-4.01-1-2.59-1-7.34v-9.23q0-4.14 0.832-6.24 0.832-2.11 3.55-3.75 2.72-1.66 6.61-1.66 3.87 0 6.61 1.64 2.74 1.64 3.65 4.14 0.906 2.5 0.906 7.07z"/><path d="m231 45.2v5.12h2.67v5.14h-2.67v17.4q0 3.21 0.318 3.57 0.343 0.367 2.77 0.367v5.24h-3.99q-3.38 0-4.82-0.269-1.44-0.294-2.55-1.3-1.1-1.03-1.37-2.33-0.269-1.32-0.269-6.17v-16.5h-2.13v-5.14h2.13v-5.12z"/><path d="m246 42.4v5.17h-10.2v-5.17zm0 7.15v32.5h-10.2v-32.5z"/><path d="m270 49.6-4.63 32.5h-12.9l-4.97-32.5h8.84l2.77 23.7q0.318-2.59 1.08-12.7 0.441-5.65 0.979-11z"/><path d="m291 59.6q2.18 0.881 3.35 2.64 1.18 1.74 1.18 8.32 0 4.8-0.93 7.07-0.93 2.28-3.62 3.75-2.69 1.44-7.22 1.44-4.41 0-6.98-1.4-2.57-1.4-3.7-3.7-1.1-2.3-1.1-7.66 0-3.6 0.539-6.24 0.563-2.64 3.48-4.24-1.84-0.881-2.77-2.79-0.906-1.93-0.906-4.9 0-5.12 2.84-7.66 2.84-2.57 8.49-2.57 6.54 0 9.03 2.72t2.5 7.76q0 3.21-0.832 4.63-0.808 1.42-3.35 2.82zm-5.56-8.52q0-2.01-0.367-2.64-0.343-0.661-1.35-0.661-0.979 0-1.32 0.71-0.343 0.685-0.343 2.59v3.01q0 1.79 0.392 2.47 0.392 0.685 1.32 0.685 0.979 0 1.32-0.661 0.343-0.685 0.343-2.79zm0.196 16.5q0-2.28-0.465-3.01-0.465-0.759-1.47-0.759-0.979 0-1.42 0.734-0.416 0.71-0.416 3.04v5.14q0 2.57 0.465 3.3 0.49 0.734 1.52 0.734 1.05 0 1.42-0.734 0.367-0.759 0.367-3.38z"/></g><path d="m310 18.7-27.4-18.3c-0.936-0.576-1.93-0.581-2.88 0l-27.4 18.3c-0.703 0.469-1.14 1.31-1.14 2.14v18.3c0 0.837 0.435 1.67 1.14 2.14l27.4 18.3c0.936 0.576 1.93 0.581 2.88 0l27.4-18.3c0.703-0.469 1.14-1.31 1.14-2.14v-18.3c-1e-4 -0.837-0.435-1.67-1.14-2.14zm-26.3-11.3 20.2 13.5-9.01 6.03-11.2-7.47zm-5.16 0v12l-11.2 7.47-9.01-6.03zm-22.3 18.3 6.46 4.32-6.46 4.32zm22.3 26.9-20.2-13.5 9.01-6.03 11.2 7.47zm2.58-16.5-9.11-6.09 9.11-6.09 9.11 6.09zm2.58 16.5v-12l11.2-7.47 9.01 6.03zm22.3-18.3-6.46-4.32 6.46-4.32z" stroke-width=".117"/></g></svg>
