<?xml version="1.0" encoding="UTF-8"?>
<svg version="1.1" viewBox="0 0 467 1280" xmlns="http://www.w3.org/2000/svg" xmlns:xlink="http://www.w3.org/1999/xlink"><defs><clipPath id="clipPath4"><path d="m36 194h770v961h-770z"/></clipPath><clipPath id="clipPath8"><path d="m48 1140h3v3h-3z"/></clipPath><clipPath id="clipPath14"><path d="m48 207h3v3h-3z"/></clipPath><clipPath id="clipPath16"><path transform="matrix(2,0,0,-2,0,2382)" d="m49 1140h744v3h-744z"/></clipPath><clipPath id="clipPath18"><path transform="matrix(2,0,0,-2,0,2382)" d="m790 208h4v934h-4z"/></clipPath><clipPath id="clipPath20"><path transform="matrix(2,0,0,-2,0,2382)" d="m49 206h744v4h-744z"/></clipPath><clipPath id="clipPath22"><path transform="matrix(2,0,0,-2,0,2382)" d="m48 208h3v934h-3z"/></clipPath><clipPath id="clipPath23"><path d="m254 1036h155v27.5h-155z"/></clipPath><clipPath id="clipPath26"><path d="m253 1035h157v30h-157z"/></clipPath><clipPath id="clipPath27"><path d="m254 972h155v27.5h-155z"/></clipPath><clipPath id="clipPath30"><path d="m253 971h157v29h-157z"/></clipPath><clipPath id="clipPath31"><path d="m254 792h155v27.5h-155z"/></clipPath><clipPath id="clipPath34"><path d="m253 791h157v30h-157z"/></clipPath><clipPath id="clipPath35"><path d="m254 728h155v27.5h-155z"/></clipPath><clipPath id="clipPath38"><path d="m253 727h157v29h-157z"/></clipPath><clipPath id="clipPath39"><path d="m254 438h155v27.5h-155z"/></clipPath><clipPath id="clipPath42"><path d="m253 437h157v30h-157z"/></clipPath><clipPath id="clipPath43"><path d="m254 338h155v63h-155z"/></clipPath><clipPath id="clipPath46"><path d="m253 337h157v65h-157z"/></clipPath><clipPath id="clipPath47"><path transform="matrix(.0556 0 0 -.0556 -14.1 61.7)" d="m255 1107h95v18h-95z"/></clipPath><clipPath id="clipPath48"><path transform="matrix(.0833 0 0 -.0833 -21.1 89.6)" d="m254 1074h49v11h-49z"/></clipPath><clipPath id="clipPath49"><path transform="matrix(.0833 0 0 -.0833 -21.9 87.2)" d="m263 1045h80.3v11h-80.3z"/></clipPath><clipPath id="clipPath51"><path d="m399 1047h7v5h-7z"/></clipPath><clipPath id="clipPath52"><path transform="matrix(.0833 0 0 -.0833 -21.1 84.2)" d="m254 1010h42v10h-42z"/></clipPath><clipPath id="clipPath53"><path transform="matrix(.0833 0 0 -.0833 -21.9 81.8)" d="m263 978h133v13.6h-133z"/></clipPath><clipPath id="clipPath55"><path d="m399 983h7v5h-7z"/></clipPath><clipPath id="clipPath56"><path transform="matrix(.0833 0 0 -.0833 -21.1 78.8)" d="m254 943h127v13h-127z"/></clipPath><clipPath id="clipPath57"><path transform="matrix(.0833 0 0 -.0833 -21.1 69.3)" d="m254 830h56v11h-56z"/></clipPath><clipPath id="clipPath58"><path transform="matrix(.0833 0 0 -.0833 -21.9 66.8)" d="m263 799h43v13h-43z"/></clipPath><clipPath id="clipPath60"><path d="m399 803h7v5h-7z"/></clipPath><clipPath id="clipPath61"><path transform="matrix(.0833 0 0 -.0833 -21.1 63.9)" d="m254 764h143v12h-143z"/></clipPath><clipPath id="clipPath62"><path transform="matrix(.0833 0 0 -.0833 -21.9 61.4)" d="m263 740h65v2h-65z"/></clipPath><clipPath id="clipPath64"><path d="m399 739h7v5h-7z"/></clipPath><clipPath id="clipPath65"><path transform="matrix(.0833 0 0 -.0833 -21.1 58.5)" d="m254 699h86v13h-86z"/></clipPath><clipPath id="clipPath66"><path transform="matrix(.0833 0 0 -.0833 -21.1 57)" d="m254 681h77v13h-77z"/></clipPath><clipPath id="clipPath67"><path d="m253 542h94.5v28h-94.5z"/></clipPath><clipPath id="clipPath70"><path d="m253 542h95v29h-95z"/></clipPath><clipPath id="clipPath72"><path d="m263 551h10v10h-10z"/></clipPath><clipPath id="clipPath74"><path transform="matrix(2,0,0,-2,0,2382)" d="m263 551h10.5v10.5h-10.5z"/></clipPath><clipPath id="clipPath75"><path transform="matrix(.0833 0 0 -.0833 -23.4 46)" d="m273 551h65v11h-65z"/></clipPath><clipPath id="clipPath76"><path d="m253 508h102v28h-102z"/></clipPath><clipPath id="clipPath79"><path d="m253 508h102v29h-102z"/></clipPath><clipPath id="clipPath81"><path d="m263 517h10.5v10.5h-10.5z"/></clipPath><clipPath id="clipPath83"><path d="m264 518h7v7h-7z"/></clipPath><clipPath id="clipPath85"><path transform="matrix(2,0,0,-2,0,2382)" d="m263 517h10.5v10.5h-10.5z"/></clipPath><clipPath id="clipPath86"><path transform="matrix(.0833 0 0 -.0833 -23.4 43.2)" d="m273 517h72v11h-72z"/></clipPath><clipPath id="clipPath87"><path transform="matrix(.0833 0 0 -.0833 -21.1 39.8)" d="m254 476h78v11h-78z"/></clipPath><clipPath id="clipPath88"><path transform="matrix(.0833 0 0 -.0833 -21.9 37.3)" d="m263 447h36v11h-36z"/></clipPath><clipPath id="clipPath90"><path d="m399 449h7v5h-7z"/></clipPath><clipPath id="clipPath91"><path transform="matrix(.0833 0 0 -.0833 -21.1 34.4)" d="m254 412h49v10h-49z"/></clipPath><clipPath id="clipPath92"><path transform="matrix(.0833 0 0 -.0833 -21.9 32)" d="m263 383h50v10h-50z"/></clipPath><clipPath id="clipPath93"><path d="m265 286h84v28h-84z"/></clipPath><clipPath id="clipPath96"><path d="m265 285h85v29h-85z"/></clipPath><clipPath id="clipPath97"><path transform="matrix(.0833 0 0 -.0833 -22.9 24.6)" d="m274 295h65v10h-65z"/></clipPath><clipPath id="clipPath98"><path d="m265 234h91.2v28h-91.2z"/></clipPath><clipPath id="clipPath101"><path d="m265 233h92v29h-92z"/></clipPath><clipPath id="clipPath102"><path transform="matrix(.0833 0 0 -.0833 -22.9 20.3)" d="m275 243h72v10h-72z"/></clipPath><clipPath id="clipPath103"><path d="m253 856h156v73h-156z"/></clipPath><clipPath id="clipPath106"><path d="m253 856h157v74h-157z"/></clipPath><clipPath id="clipPath107"><path transform="matrix(.0833 0 0 -.0833 -22.4 74.1)" d="m269 886h21v12h-21z"/></clipPath><clipPath id="clipPath108"><path transform="matrix(.0833 0 0 -.0833 -24.2 75.6)" d="m290 906h92v10h-92z"/></clipPath><clipPath id="clipPath109"><path transform="matrix(.0833 0 0 -.0833 -24.2 74.1)" d="m291 888h57v10h-57z"/></clipPath><clipPath id="clipPath110"><path transform="matrix(.0833 0 0 -.0833 -24.2 72.6)" d="m290 870h95v10h-95z"/></clipPath><clipPath id="clipPath111"><path d="m253 630h156v37h-156z"/></clipPath><clipPath id="clipPath114"><path d="m253 630h157v38h-157z"/></clipPath><clipPath id="clipPath115"><path transform="matrix(.0833 0 0 -.0833 -22.4 53.7)" d="m268 644h29v10h-29z"/></clipPath><clipPath id="clipPath116"><path transform="matrix(.0833 0 0 -.0833 -22.4 50.4)" d="m269 602h86v13h-86z"/></clipPath><clipPath id="clipPath117"><path transform="matrix(.0833 0 0 -.0833 -22.4 48.9)" d="m269 584h129v13h-129z"/></clipPath><clipPath id="clipPath119"><path d="m253 604h10.5v10.5h-10.5z"/></clipPath><clipPath id="clipPath121"><path d="m255 606h8v7h-8z"/></clipPath><clipPath id="clipPath122"><path transform="matrix(.0833 0 0 -.0833 -36 92.9)" d="m432 1112h92v13h-92z"/></clipPath><clipPath id="clipPath123"><path transform="matrix(.0833 0 0 -.0833 -36.7 91.4)" d="m441 1096h14v10h-14z"/></clipPath><clipPath id="clipPath124"><path transform="matrix(.0833 0 0 -.0833 -38.5 91.4)" d="m462 1094h21v12h-21z"/></clipPath><clipPath id="clipPath125"><path transform="matrix(.0833 0 0 -.0833 -36.7 89.9)" d="m441 1078h14v10h-14z"/></clipPath><clipPath id="clipPath126"><path transform="matrix(.0833 0 0 -.0833 -38.5 89.9)" d="m463 1076h42v12h-42z"/></clipPath><clipPath id="clipPath127"><path transform="matrix(.0833 0 0 -.0833 -36.7 88.4)" d="m441 1060h14v10h-14z"/></clipPath><clipPath id="clipPath128"><path transform="matrix(.0833 0 0 -.0833 -38.5 88.4)" d="m462 1058h43v12h-43z"/></clipPath><clipPath id="clipPath129"><path transform="matrix(.0833 0 0 -.0833 -36.7 86.9)" d="m441 1042h14v10h-14z"/></clipPath><clipPath id="clipPath130"><path transform="matrix(.0833 0 0 -.0833 -38.5 86.9)" d="m462 1040h29v12h-29z"/></clipPath><clipPath id="clipPath131"><path transform="matrix(.0833 0 0 -.0833 -36.7 85.4)" d="m441 1024h14v10h-14z"/></clipPath><clipPath id="clipPath132"><path transform="matrix(.0833 0 0 -.0833 -38.5 85.4)" d="m462 1022h29v12h-29z"/></clipPath><clipPath id="clipPath133"><path transform="matrix(.0833 0 0 -.0833 -36.7 83.9)" d="m441 1006h14v10h-14z"/></clipPath><clipPath id="clipPath134"><path transform="matrix(.0833 0 0 -.0833 -38.5 83.9)" d="m463 1e3h42v12h-42z"/></clipPath><clipPath id="clipPath135"><path transform="matrix(.0833 0 0 -.0833 -36.7 82.4)" d="m441 988h14v10h-14z"/></clipPath><clipPath id="clipPath136"><path transform="matrix(.0833 0 0 -.0833 -38.5 82.4)" d="m462 988h36v10h-36z"/></clipPath><clipPath id="clipPath137"><path transform="matrix(.0833 0 0 -.0833 -36.7 80.9)" d="m441 970h14v10h-14z"/></clipPath><clipPath id="clipPath138"><path transform="matrix(.0833 0 0 -.0833 -38.5 80.9)" d="m463 970h20v10h-20z"/></clipPath><clipPath id="clipPath139"><path transform="matrix(.0833 0 0 -.0833 -36.7 79.4)" d="m441 952h14v10h-14z"/></clipPath><clipPath id="clipPath140"><path transform="matrix(.0833 0 0 -.0833 -38.5 79.4)" d="m463 952h20v10h-20z"/></clipPath><clipPath id="clipPath141"><path transform="matrix(.0833 0 0 -.0833 -36.1 77.9)" d="m434 934h21v10h-21z"/></clipPath><clipPath id="clipPath142"><path transform="matrix(.0833 0 0 -.0833 -38.5 77.9)" d="m463 934h28v10h-28z"/></clipPath><clipPath id="clipPath143"><path transform="matrix(.0833 0 0 -.0833 -36.1 76.4)" d="m434 916h21v10h-21z"/></clipPath><clipPath id="clipPath144"><path transform="matrix(.0833 0 0 -.0833 -38.5 76.4)" d="m463 916h28v10h-28z"/></clipPath></defs><g transform="translate(-288 -48)"><g><path transform="matrix(.607 0 0 -1.33 266 1588)" d="m36 195h770v960h-770z" clip-path="url(#clipPath4)" fill="#343a40"/><path transform="matrix(1.33 0 0 -1.33 240 1588)" d="m48 1143 3-3-3 3 3-3v3h-3l3-3h-3v3" clip-path="url(#clipPath8)" fill="#ffc107"/><path transform="matrix(1.33 0 0 -1.33 240 1588)" d="m48 207 3 3-3-3 3 3v-3h-3l3 3h-3v-3" clip-path="url(#clipPath14)" fill="#ffc107"/></g><g fill="none" stroke="#ffc107" stroke-miterlimit="10" stroke-width="6"><path transform="matrix(.667 0 0 .667 240 0)" d="m102 99 643 3" clip-path="url(#clipPath16)" stroke-dasharray="18.046, 18.046" stroke-dashoffset="9.02"/><path transform="matrix(.667 0 0 .667 -320 0)" d="m1585 102v1860" clip-path="url(#clipPath18)" stroke-dasharray="17.8865, 17.8865" stroke-dashoffset="8.94"/><path transform="matrix(.667 0 0 .667 240 0)" d="m744 1966-642-0.797" clip-path="url(#clipPath20)" stroke-dasharray="18.046, 18.046" stroke-dashoffset="9.02"/><path transform="matrix(.667 0 0 .667 240 0)" d="m99 1962v-1860" clip-path="url(#clipPath22)" stroke-dasharray="17.8865, 17.8865" stroke-dashoffset="8.94"/></g><path transform="matrix(1.33 0 0 -1.33 0 1588)" d="m254 1036h155v27.5h-155z" clip-path="url(#clipPath23)" fill="#fff"/><path transform="matrix(1.33 0 0 -1.33 0 1588)" d="m256 1064h150c1.66 0 3-1.34 3-3v-22.5c0-1.65-1.34-3-3-3h-150c-1.66 0-3 1.35-3 3v22.5c0 1.66 1.34 3 3 3zm150-0.5h-150c-1.38 0-2.5-1.12-2.5-2.5v-22.5c0-1.38 1.12-2.5 2.5-2.5h150c1.38 0 2.5 1.12 2.5 2.5v22.5c0 1.38-1.12 2.5-2.5 2.5z" clip-path="url(#clipPath26)" fill="#ced4da"/><path transform="matrix(1.33 0 0 -1.33 0 1588)" d="m254 972h155v27.5h-155z" clip-path="url(#clipPath27)" fill="#fff"/><path transform="matrix(1.33 0 0 -1.33 0 1588)" d="m256 1e3h150c1.66 0 3-1.34 3-3v-22.5c0-1.65-1.34-3-3-3h-150c-1.66 0-3 1.35-3 3v22.5c0 1.66 1.34 3 3 3zm150-0.5h-150c-1.38 0-2.5-1.12-2.5-2.5v-22.5c0-1.38 1.12-2.5 2.5-2.5h150c1.38 0 2.5 1.12 2.5 2.5v22.5c0 1.38-1.12 2.5-2.5 2.5z" clip-path="url(#clipPath30)" fill="#ced4da"/><path transform="matrix(1.33 0 0 -1.33 0 1588)" d="m254 792h155v27.5h-155z" clip-path="url(#clipPath31)" fill="#fff"/><path transform="matrix(1.33 0 0 -1.33 0 1588)" d="m256 820h150c1.66 0 3-1.34 3-3v-22.5c0-1.65-1.34-3-3-3h-150c-1.66 0-3 1.35-3 3v22.5c0 1.66 1.34 3 3 3zm150-0.5h-150c-1.38 0-2.5-1.12-2.5-2.5v-22.5c0-1.38 1.12-2.5 2.5-2.5h150c1.38 0 2.5 1.12 2.5 2.5v22.5c0 1.38-1.12 2.5-2.5 2.5z" clip-path="url(#clipPath34)" fill="#ced4da"/><path transform="matrix(1.33 0 0 -1.33 0 1588)" d="m254 728h155v27.5h-155z" clip-path="url(#clipPath35)" fill="#fff"/><path transform="matrix(1.33 0 0 -1.33 0 1588)" d="m256 756h150c1.66 0 3-1.34 3-3v-22.5c0-1.65-1.34-3-3-3h-150c-1.66 0-3 1.35-3 3v22.5c0 1.66 1.34 3 3 3zm150-0.5h-150c-1.38 0-2.5-1.12-2.5-2.5v-22.5c0-1.38 1.12-2.5 2.5-2.5h150c1.38 0 2.5 1.12 2.5 2.5v22.5c0 1.38-1.12 2.5-2.5 2.5z" clip-path="url(#clipPath38)" fill="#ced4da"/><path transform="matrix(1.33 0 0 -1.33 0 1588)" d="m254 438h155v27.5h-155z" clip-path="url(#clipPath39)" fill="#fff"/><path transform="matrix(1.33 0 0 -1.33 0 1588)" d="m256 466h150c1.66 0 3-1.34 3-3v-22.5c0-1.65-1.34-3-3-3h-150c-1.66 0-3 1.35-3 3v22.5c0 1.66 1.34 3 3 3zm150-0.5h-150c-1.38 0-2.5-1.12-2.5-2.5v-22.5c0-1.38 1.12-2.5 2.5-2.5h150c1.38 0 2.5 1.12 2.5 2.5v22.5c0 1.38-1.12 2.5-2.5 2.5z" clip-path="url(#clipPath42)" fill="#ced4da"/><path transform="matrix(1.33 0 0 -1.33 0 1588)" d="m254 338h155v63h-155z" clip-path="url(#clipPath43)" fill="#fff"/><path transform="matrix(1.33 0 0 -1.33 0 1588)" d="m256 402h150c1.66 0 3-1.34 3-3v-58c0-1.65-1.34-3-3-3h-150c-1.66 0-3 1.35-3 3v58c0 1.66 1.34 3 3 3zm150-0.5h-150c-1.38 0-2.5-1.12-2.5-2.5v-58c0-1.38 1.12-2.5 2.5-2.5h150c1.38 0 2.5 1.12 2.5 2.5v58c0 1.38-1.12 2.5-2.5 2.5z" clip-path="url(#clipPath46)" fill="#ced4da"/><text transform="matrix(24 0 0 24 338 107)" clip-path="url(#clipPath47)" xml:space="preserve"><tspan x="0" y="0" fill="#ffc107" font-family="Menlo" font-size="1px" font-weight="700">Log Event</tspan></text><text transform="matrix(16 0 0 16 338 154)" clip-path="url(#clipPath48)" xml:space="preserve"><tspan x="0" y="0" fill="#ffc107" font-family="Menlo" font-size="1px">Session</tspan></text><text transform="matrix(16 0 0 16 350 193)" clip-path="url(#clipPath49)" xml:space="preserve"><tspan x="0" y="0" fill="#495057" font-family="Menlo" font-size="1px">Wattle Park</tspan></text><path transform="matrix(1.33 0 0 -1.33 0 1588)" d="m399 1051 2.62-3h0.75l2.62 3v0.75h-0.75l-2.25-2.62-2.25 2.62h-0.75" clip-path="url(#clipPath51)" fill="#495057"/><text transform="matrix(16 0 0 16 338 240)" clip-path="url(#clipPath52)" xml:space="preserve"><tspan x="0" y="0" fill="#ffc107" font-family="Menlo" font-size="1px">Patrol</tspan></text><text transform="matrix(16 0 0 16 350 279)" clip-path="url(#clipPath53)" xml:space="preserve"><tspan x="0" y="0" fill="#495057" font-family="Menlo" font-size="1px">Dropbears (5 members)</tspan></text><path transform="matrix(1.33 0 0 -1.33 0 1588)" d="m399 986 2.62-3h0.75l2.62 3v0.75h-0.75l-2.25-2.62-2.25 2.62h-0.75" clip-path="url(#clipPath55)" fill="#495057"/><text transform="matrix(16 0 0 16 338 326)" clip-path="url(#clipPath56)" xml:space="preserve"><tspan x="0" y="0" fill="#ffc107" font-family="Menlo" font-size="1px" font-weight="700">Expected Location:</tspan></text><text transform="matrix(16 0 0 16 338 480)" clip-path="url(#clipPath57)" xml:space="preserve"><tspan x="0" y="0" fill="#ffc107" font-family="Menlo" font-size="1px">Location</tspan></text><text transform="matrix(16 0 0 16 350 519)" clip-path="url(#clipPath58)" xml:space="preserve"><tspan x="0" y="0" fill="#495057" font-family="Menlo" font-size="1px">Purple</tspan></text><path transform="matrix(1.33 0 0 -1.33 0 1588)" d="m399 807 2.62-3h0.75l2.62 3v0.75h-0.75l-2.25-2.62-2.25 2.62h-0.75" clip-path="url(#clipPath60)" fill="#495057"/><text transform="matrix(16 0 0 16 338 566)" clip-path="url(#clipPath61)" xml:space="preserve"><tspan x="0" y="0" fill="#ffc107" font-family="Menlo" font-size="1px">Intelligence request</tspan></text><text transform="matrix(16 0 0 16 350 605)" clip-path="url(#clipPath62)" xml:space="preserve"><tspan x="0" y="0" fill="#495057" font-family="Menlo" font-size="1px">---------</tspan></text><path transform="matrix(1.33 0 0 -1.33 0 1588)" d="m399 742 2.62-3h0.75l2.62 3v0.75h-0.75l-2.25-2.62-2.25 2.62h-0.75" clip-path="url(#clipPath64)" fill="#495057"/><text transform="matrix(16 0 0 16 338 652)" clip-path="url(#clipPath65)" xml:space="preserve"><tspan x="0" y="0" fill="#ffc107" font-family="Menlo" font-size="1px" font-weight="700">Intelligence</tspan></text><text transform="matrix(16 0 0 16 338 676)" clip-path="url(#clipPath66)" xml:space="preserve"><tspan x="0" y="0" fill="#ffc107" font-family="Menlo" font-size="1px" font-weight="700">suggestion:</tspan></text><path transform="matrix(1.33 0 0 -1.33 0 1588)" d="m253 542h94.5v28h-94.5z" clip-path="url(#clipPath67)" fill="#28a745"/><path transform="matrix(1.33 0 0 -1.33 0 1588)" d="m256 570h88.5c1.66 0 3-1.34 3-3v-22c0-1.65-1.34-3-3-3h-88.5c-1.66 0-3 1.35-3 3v22c0 1.66 1.34 3 3 3zm88.5-0.5h-88.5c-1.38 0-2.5-1.12-2.5-2.5v-22c0-1.38 1.12-2.5 2.5-2.5h88.5c1.38 0 2.5 1.12 2.5 2.5v22c0 1.38-1.12 2.5-2.5 2.5z" clip-path="url(#clipPath70)" fill="#28a745"/><path transform="matrix(1.33 0 0 -1.33 0 1588)" d="m268 560c2.48 0 4.5-2.02 4.5-4.5 0-2.48-2.02-4.5-4.5-4.5-2.48 0-4.5 2.02-4.5 4.5 0 2.48 2.02 4.5 4.5 4.5z" clip-path="url(#clipPath72)" fill="#fff"/><path transform="scale(.667)" d="m536 1261c4.96 0 9 4.03 9 9 0 4.96-4.04 9-9 9-4.97 0-9-4.04-9-9 0-4.97 4.03-9 9-9z" clip-path="url(#clipPath74)" fill="none" stroke="#8f8f9d" stroke-miterlimit="10" stroke-width="3"/><text transform="matrix(16 0 0 16 374 852)" clip-path="url(#clipPath75)" xml:space="preserve"><tspan x="0" y="0" fill="#ffffff" font-family="Menlo" font-size="1px">Check in</tspan></text><path transform="matrix(1.33 0 0 -1.33 0 1588)" d="m253 508h102v28h-102z" clip-path="url(#clipPath76)" fill="#bd2130"/><g><path transform="matrix(1.33 0 0 -1.33 0 1588)" d="m256 536h95.8c1.65 0 3-1.34 3-3v-22c0-1.65-1.35-3-3-3h-95.8c-1.66 0-3 1.35-3 3v22c0 1.66 1.34 3 3 3zm95.8-0.5h-95.8c-1.38 0-2.5-1.12-2.5-2.5v-22c0-1.38 1.12-2.5 2.5-2.5h95.8c1.38 0 2.5 1.12 2.5 2.5v22c0 1.38-1.12 2.5-2.5 2.5z" clip-path="url(#clipPath79)" fill="#b21f2d"/><path transform="matrix(1.33 0 0 -1.33 0 1588)" d="m268 527c2.89 0 5.25-2.35 5.25-5.25 0-2.89-2.36-5.25-5.25-5.25-2.9 0-5.25 2.36-5.25 5.25 0 2.9 2.35 5.25 5.25 5.25z" clip-path="url(#clipPath81)" fill="#007aff"/><path transform="matrix(1.33 0 0 -1.33 0 1588)" d="m268 525c1.65 0 3-1.34 3-3 0-1.65-1.35-3-3-3-1.66 0-3 1.35-3 3 0 1.66 1.34 3 3 3z" clip-path="url(#clipPath83)" fill="#007aff"/></g><path transform="scale(.667)" d="m536 1332c3.3 0 6 2.69 6 6 0 3.3-2.7 6-6 6-3.31 0-6-2.7-6-6 0-3.31 2.69-6 6-6z" clip-path="url(#clipPath85)" fill="none" stroke="#fff" stroke-miterlimit="10" stroke-width="3"/><text transform="matrix(16 0 0 16 374 897)" clip-path="url(#clipPath86)" xml:space="preserve"><tspan x="0" y="0" fill="#ffffff" font-family="Menlo" font-size="1px">Check out</tspan></text><text transform="matrix(16 0 0 16 338 952)" clip-path="url(#clipPath87)" xml:space="preserve"><tspan x="0" y="0" fill="#ffc107" font-family="Menlo" font-size="1px">Destination</tspan></text><text transform="matrix(16 0 0 16 350 991)" clip-path="url(#clipPath88)" xml:space="preserve"><tspan x="0" y="0" fill="#495057" font-family="Menlo" font-size="1px">Black</tspan></text><path transform="matrix(1.33 0 0 -1.33 0 1588)" d="m399 453 2.62-3h0.75l2.62 3v0.75h-0.75l-2.25-2.62-2.25 2.62h-0.75" clip-path="url(#clipPath90)" fill="#495057"/><text transform="matrix(16 0 0 16 338 1038)" clip-path="url(#clipPath91)" xml:space="preserve"><tspan x="0" y="0" fill="#ffc107" font-family="Menlo" font-size="1px">Comment</tspan></text><text transform="matrix(16 0 0 16 350 1076)" clip-path="url(#clipPath92)" xml:space="preserve"><tspan x="0" y="0" fill="#6c757d" font-family="Menlo" font-size="1px">Comment</tspan></text><path transform="matrix(1.33 0 0 -1.33 0 1588)" d="m265 286h84v28h-84z" clip-path="url(#clipPath93)" fill="#ffc107"/><path transform="matrix(1.33 0 0 -1.33 0 1588)" d="m268 314h78c1.66 0 3-1.34 3-3v-22c0-1.65-1.34-3-3-3h-78c-1.66 0-3 1.35-3 3v22c0 1.66 1.34 3 3 3zm78-0.5h-78c-1.38 0-2.5-1.12-2.5-2.5v-22c0-1.38 1.12-2.5 2.5-2.5h78c1.38 0 2.5 1.12 2.5 2.5v22c0 1.38-1.12 2.5-2.5 2.5z" clip-path="url(#clipPath96)" fill="#ffc107"/><text transform="matrix(16 0 0 16 366 1194)" clip-path="url(#clipPath97)" xml:space="preserve"><tspan x="0" y="0" fill="#212529" font-family="Menlo" font-size="1px">Add Event</tspan></text><path transform="matrix(1.33 0 0 -1.33 0 1588)" d="m265 234h91.2v28h-91.2z" clip-path="url(#clipPath98)" fill="#dc3545"/><path transform="matrix(1.33 0 0 -1.33 0 1588)" d="m268 262h85.2c1.65 0 3-1.34 3-3v-22c0-1.65-1.35-3-3-3h-85.2c-1.66 0-3 1.35-3 3v22c0 1.66 1.34 3 3 3zm85.2-0.5h-85.2c-1.38 0-2.5-1.12-2.5-2.5v-22c0-1.38 1.12-2.5 2.5-2.5h85.2c1.38 0 2.5 1.12 2.5 2.5v22c0 1.38-1.12 2.5-2.5 2.5z" clip-path="url(#clipPath101)" fill="#dc3545"/><text transform="matrix(16 0 0 16 366 1263)" clip-path="url(#clipPath102)" xml:space="preserve"><tspan x="0" y="0" fill="#ffffff" font-family="Menlo" font-size="1px">Clear Form</tspan></text><path transform="matrix(1.33 0 0 -1.33 0 1588)" d="m253 856h156v73h-156z" clip-path="url(#clipPath103)" fill="#f8d7da"/><path transform="matrix(1.33 0 0 -1.33 0 1588)" d="m256 929h150c1.66 0 3-1.34 3-3v-67c0-1.65-1.34-3-3-3h-150c-1.66 0-3 1.35-3 3v67c0 1.66 1.34 3 3 3zm150-0.5h-150c-1.38 0-2.5-1.12-2.5-2.5v-67c0-1.38 1.12-2.5 2.5-2.5h150c1.38 0 2.5 1.12 2.5 2.5v67c0 1.38-1.12 2.5-2.5 2.5z" clip-path="url(#clipPath106)" fill="#f5c6cb"/><text transform="matrix(16 0 0 16 358 403)" clip-path="url(#clipPath107)" xml:space="preserve"><tspan x="0" y="0" fill="#721c24" font-family="Menlo" font-size="1px">Ops</tspan></text><text transform="matrix(16 0 0 16 387 379)" clip-path="url(#clipPath108)" xml:space="preserve"><tspan x="0" y="0" fill="#721c24" font-family="Menlo" font-size="1px" font-weight="700"> ### WARNING!</tspan></text><text transform="matrix(16 0 0 16 387 403)" clip-path="url(#clipPath109)" xml:space="preserve"><tspan x="0" y="0" fill="#721c24" font-family="Menlo" font-size="1px" font-weight="700">LOCATION</tspan></text><text transform="matrix(16 0 0 16 387 427)" clip-path="url(#clipPath110)" xml:space="preserve"><tspan x="0" y="0" fill="#721c24" font-family="Menlo" font-size="1px" font-weight="700">MISMATCH! ###</tspan></text><path transform="matrix(1.33 0 0 -1.33 0 1588)" d="m253 630h156v37h-156z" clip-path="url(#clipPath111)" fill="#d1ecf1"/><path transform="matrix(1.33 0 0 -1.33 0 1588)" d="m256 667h150c1.66 0 3-1.34 3-3v-31c0-1.65-1.34-3-3-3h-150c-1.66 0-3 1.35-3 3v31c0 1.66 1.34 3 3 3zm150-0.5h-150c-1.38 0-2.5-1.12-2.5-2.5v-31c0-1.38 1.12-2.5 2.5-2.5h150c1.38 0 2.5 1.12 2.5 2.5v31c0 1.38-1.12 2.5-2.5 2.5z" clip-path="url(#clipPath114)" fill="#bee5eb"/><text transform="matrix(16 0 0 16 358 728)" clip-path="url(#clipPath115)" xml:space="preserve"><tspan x="0" y="0" fill="#0c5460" font-family="Menlo" font-size="1px">NONE</tspan></text><text transform="matrix(16 0 0 16 358 781)" clip-path="url(#clipPath116)" xml:space="preserve"><tspan x="0" y="0" fill="#ffc107" font-family="Menlo" font-size="1px">Intelligence</tspan></text><text transform="matrix(16 0 0 16 358 805)" clip-path="url(#clipPath117)" xml:space="preserve"><tspan x="0" y="0" fill="#ffc107" font-family="Menlo" font-size="1px">answered correctly</tspan></text><path transform="matrix(1.33 0 0 -1.33 0 1588)" d="m255 615h7.5c0.828 0 1.5-0.672 1.5-1.5v-7.5c0-0.828-0.672-1.5-1.5-1.5h-7.5c-0.828 0-1.5 0.672-1.5 1.5v7.5c0 0.828 0.672 1.5 1.5 1.5z" clip-path="url(#clipPath119)" fill="#007aff"/><path transform="matrix(1.33 0 0 -1.33 0 1588)" d="m255 609 2.25-2.62h0.75l4.12 4.88-0.188 1.12h-0.938l-3-3.75-0.75-0.188-1.5 1.69" clip-path="url(#clipPath121)" fill="#fff"/><text transform="matrix(16 0 0 16 576 102)" clip-path="url(#clipPath122)" xml:space="preserve"><tspan x="0" y="0" fill="#ffc107" font-family="Menlo" font-size="1px" font-weight="700">Base History:</tspan></text><text transform="matrix(16 0 0 16 587 126)" clip-path="url(#clipPath123)" xml:space="preserve"><tspan x="0" y="0" fill="#ffc107" font-family="Menlo" font-size="1px">1. </tspan></text><text transform="matrix(16 0 0 16 616 126)" clip-path="url(#clipPath124)" xml:space="preserve"><tspan x="0" y="0" fill="#ffc107" font-family="Menlo" font-size="1px">Ops</tspan></text><text transform="matrix(16 0 0 16 587 150)" clip-path="url(#clipPath125)" xml:space="preserve"><tspan x="0" y="0" fill="#ffc107" font-family="Menlo" font-size="1px">2. </tspan></text><text transform="matrix(16 0 0 16 616 150)" clip-path="url(#clipPath126)" xml:space="preserve"><tspan x="0" y="0" fill="#ffc107" font-family="Menlo" font-size="1px">Indigo</tspan></text><text transform="matrix(16 0 0 16 587 174)" clip-path="url(#clipPath127)" xml:space="preserve"><tspan x="0" y="0" fill="#ffc107" font-family="Menlo" font-size="1px">3. </tspan></text><text transform="matrix(16 0 0 16 616 174)" clip-path="url(#clipPath128)" xml:space="preserve"><tspan x="0" y="0" fill="#ffc107" font-family="Menlo" font-size="1px">Orange</tspan></text><text transform="matrix(16 0 0 16 587 198)" clip-path="url(#clipPath129)" xml:space="preserve"><tspan x="0" y="0" fill="#ffc107" font-family="Menlo" font-size="1px">4. </tspan></text><text transform="matrix(16 0 0 16 616 198)" clip-path="url(#clipPath130)" xml:space="preserve"><tspan x="0" y="0" fill="#ffc107" font-family="Menlo" font-size="1px">Aqua</tspan></text><text transform="matrix(16 0 0 16 587 222)" clip-path="url(#clipPath131)" xml:space="preserve"><tspan x="0" y="0" fill="#ffc107" font-family="Menlo" font-size="1px">5. </tspan></text><text transform="matrix(16 0 0 16 616 222)" clip-path="url(#clipPath132)" xml:space="preserve"><tspan x="0" y="0" fill="#ffc107" font-family="Menlo" font-size="1px">Grey</tspan></text><text transform="matrix(16 0 0 16 587 246)" clip-path="url(#clipPath133)" xml:space="preserve"><tspan x="0" y="0" fill="#ffc107" font-family="Menlo" font-size="1px">6. </tspan></text><text transform="matrix(16 0 0 16 616 246)" clip-path="url(#clipPath134)" xml:space="preserve"><tspan x="0" y="0" fill="#ffc107" font-family="Menlo" font-size="1px">Purple</tspan></text><text transform="matrix(16 0 0 16 587 270)" clip-path="url(#clipPath135)" xml:space="preserve"><tspan x="0" y="0" fill="#ffc107" font-family="Menlo" font-size="1px">7. </tspan></text><text transform="matrix(16 0 0 16 616 270)" clip-path="url(#clipPath136)" xml:space="preserve"><tspan x="0" y="0" fill="#ffc107" font-family="Menlo" font-size="1px">Green</tspan></text><text transform="matrix(16 0 0 16 587 294)" clip-path="url(#clipPath137)" xml:space="preserve"><tspan x="0" y="0" fill="#ffc107" font-family="Menlo" font-size="1px">8. </tspan></text><text transform="matrix(16 0 0 16 616 294)" clip-path="url(#clipPath138)" xml:space="preserve"><tspan x="0" y="0" fill="#ffc107" font-family="Menlo" font-size="1px">Red</tspan></text><text transform="matrix(16 0 0 16 587 318)" clip-path="url(#clipPath139)" xml:space="preserve"><tspan x="0" y="0" fill="#ffc107" font-family="Menlo" font-size="1px">9. </tspan></text><text transform="matrix(16 0 0 16 616 318)" clip-path="url(#clipPath140)" xml:space="preserve"><tspan x="0" y="0" fill="#ffc107" font-family="Menlo" font-size="1px">Red</tspan></text><text transform="matrix(16 0 0 16 578 342)" clip-path="url(#clipPath141)" xml:space="preserve"><tspan x="0" y="0" fill="#ffc107" font-family="Menlo" font-size="1px">10. </tspan></text><text transform="matrix(16 0 0 16 616 342)" clip-path="url(#clipPath142)" xml:space="preserve"><tspan x="0" y="0" fill="#ffc107" font-family="Menlo" font-size="1px">Pink</tspan></text><text transform="matrix(16 0 0 16 578 366)" clip-path="url(#clipPath143)" xml:space="preserve"><tspan x="0" y="0" fill="#ffc107" font-family="Menlo" font-size="1px">11. </tspan></text><text transform="matrix(16 0 0 16 616 366)" clip-path="url(#clipPath144)" xml:space="preserve"><tspan x="0" y="0" fill="#ffc107" font-family="Menlo" font-size="1px">Blue</tspan></text></g></svg>
