<svg version="1.1" viewBox="0 0 490 599" xmlns="http://www.w3.org/2000/svg"><defs><clipPath id="a"><path d="m0 449h368v-449h-368z"/></clipPath></defs><g transform="matrix(1.33 0 0 -1.33 0 599)"><g clip-path="url(#a)"><g transform="translate(236 341)"><path d="m0 0c-1.44 12-4.17 22.7-5.81 28.7-4.59 17-10.8 33.7-22.3 33.6-12.6-0.108-18.8-15.1-26.4-33.5-7.72-18.8-12.2-26.9-19.1-30.6-9.53-5.05-27 2.14-33.5-5.79-2.93-3.58-3.57-9.36-2.63-16 0.692-4.88 2.25-10.2 4.38-15.5 2.01-4.94 4.52-9.8 7.31-14.1 6.43-9.95 14.7-17.6 24.9-22 2.37-1.02 4.84-1.87 7.41-2.53 0.198-0.05 0.395-0.099 0.593-0.147 3.68-0.9 7.58-1.43 11.7-1.54 0.554-0.015 1.11-0.025 1.67-0.025 0.543 0 1.1 0.013 1.65 0.038 3.28 0.143 6.82 0.723 10.5 1.77 0.272 0.079 0.542 0.151 0.815 0.235 0.335 0.102 0.673 0.22 1.01 0.332 1.6 0.528 3.21 1.14 4.82 1.86 0.642 0.286 1.28 0.589 1.92 0.906 10.4 5.14 20.4 14.4 26.5 29 1.98 4.75 3.53 10.1 4.53 16 1.6 9.52 1.25 19.8 0.118 29.2" fill="#fbc11c"/></g><g transform="translate(219 328)"><path d="m0 0c-0.638 10.5-2.98 20.1-5.55 28-2.38 7.28-6.06 13-11.1 13-7.58-2e-3 -12.7-8.71-17.8-18-6.38-11.6-11.4-19-24.1-22.3-7.75-2-12.8-4.83-14.7-11.3-0.448-1.59-0.677-3.26-0.731-4.97-0.174-5.54 1.53-11.5 4.01-16.8 2.39-5.07 5.49-9.45 8.32-12.1 3.36-3.08 7.1-5.51 11.2-7.2 4.09-1.71 8.52-2.67 13.2-2.79 0.348-0.01 0.694-0.025 1.04-0.025 1.37 0 2.71 0.1 4.02 0.271 15.7 2.05 26.9 15.9 30.4 31.2 1.36 5.89 1.93 11.8 1.93 17.5 2e-3 1.9-0.058 3.77-0.171 5.63" fill="#ef7d15"/></g><g transform="translate(311 291)"><path d="m0 0c-24.8 13-65.6 13.2-65.2 40.9 0.105 7.43-4.08 10.4-9.51 8.69-1.33-0.417-2.73-1.1-4.17-2.09-3.53-2.41-8.16-6.12-13.1-10.8-3.11-2.98-6.33-6.36-9.47-10.1-8.97-10.6-20-27.9-22.7-44.2-0.148-0.889-0.276-1.78-0.371-2.66-0.357-3.31-0.474-6.44-0.386-9.4 0.071-2.41 0.277-4.71 0.618-6.9 0.68-4.37 1.88-8.33 3.51-11.9 1.47-3.21 3.29-6.1 5.4-8.7 3.58-4.41 8-8 13-10.9 1.32-0.753 2.62-1.42 3.92-2.05 10-4.85 19.6-6.11 28.3-4.37 3.9 0.779 7.6 2.17 11.1 4.1 0.312 0.174 0.629 0.332 0.937 0.513 18.1 10.7 14.1 31 35.3 45.7 9.65 6.71 17.3 9.82 23.8 11.9 7.12 2.25 7.09 8.07-0.965 12.3" fill="#71c32d"/></g><g transform="translate(232 296)"><path d="m0 0c-8.13-1.04-16.1-3.97-22.8-9.63-4.41-3.69-8.7-10.9-10.1-19.2-0.436-1-0.861-2.03-1.27-3.09-0.027-0.071-0.054-0.142-0.082-0.213-0.383-0.993-0.754-2.01-1.11-3.06-0.879-2.62-1.64-5.44-2.21-8.52-0.114-0.614-0.219-1.24-0.317-1.88-0.465-3.06-0.735-6.36-0.735-9.98v-1.42h5.62v1.42c0 0.943 0.029 1.89 0.084 2.85 0.169 2.87 0.582 5.8 1.2 8.72 0.32 1.51 0.691 3.01 1.12 4.5 2.39 1.14 5.01 1.75 7.73 1.67 7.78-0.233 12.8-3.6 16-7.9 0.539-0.716 1.03-1.46 1.48-2.22 0.893-1.52 1.61-3.1 2.19-4.66 0.484-1.3 0.872-2.6 1.19-3.83 0.197-0.766 0.404-1.52 0.621-2.27 0.435-1.5 0.913-2.96 1.43-4.38 0.259-0.712 0.528-1.41 0.807-2.1 0.461 0.072 0.918 0.156 1.37 0.251 3.16 0.67 6.1 1.9 8.66 3.52 3.48 2.21 6.26 5.14 7.91 8.38 4.19 8.23 8.53 16.8 17 22.4 9.45 6.24 15 6.36 15 11.9 0 7.8-26.2 21.8-50.7 18.7" fill="#36a13f"/></g><g transform="translate(224 190)"><path d="m0 0c-0.041 1.2-0.138 2.53-0.3 3.95-0.554 4.86-1.92 10.9-4.76 17-1.64 3.49-3.77 7-6.52 10.3-4.11 4.96-9.6 9.5-16.9 12.9-0.655 0.306-1.32 0.607-2 0.894-1.34 0.563-2.71 1.06-4.08 1.49-2.74 0.857-5.54 1.43-8.35 1.68-1.73 0.151-3.47 0.172-5.2 0.054-10.3-0.705-20.2-6.39-27.5-19.8-1.14-2.1-2.65-4.41-4.42-6.83-7.88-10.8-20.9-23.6-28.9-29.3-4.97-3.48-9.56-5.42-9.37-7.9 0.347-4.7 18.1 2.48 40.1-8.36 21-10.4 27.6-24.5 39.9-31.7 12.1-7.08 22.9-1.57 28.9 10.7 6.48 13.2 10.1 28.8 9.51 44.9" fill="#ef7d15"/></g><g transform="translate(208 213)"><path d="m0 0c-4.92 1.85-9.57 4.86-13.2 9.63-1.36 1.76-2.4 3.55-3.21 5.36-1.23 2.76-1.86 5.53-1.96 8.22-2.74 0.856-5.54 1.43-8.35 1.68-1.73 0.149-3.47 0.171-5.2 0.052-3.02-4.98-6.81-9.28-10.9-13-0.332-0.299-0.667-0.593-1-0.883-4.32-4-6.54-8.96-10.7-15-2.27-3.32-5.12-6.97-9.22-11-8.24-8.03-2.52-13.8 0.184-16.4 10.2-9.87 36-22.9 49.7-16.2 8.07 3.99 16.8 10.3 18.1 29.5 0.018 0.26 0.039 0.515 0.054 0.781 0.305 5.5-1.29 11.7-4.31 17.2" fill="#ba551f"/></g><g transform="translate(268 209)"><path d="m0 0c-5.97 3.55-11.2 6.82-15.9 11.8-3.31 3.43-6.41 7.68-9.42 13.4-0.646 1.23-1.29 2.51-1.93 3.88-5.9 12.6-11.4 28.4-30.2 28.4-1.92 0-3.77-0.163-5.54-0.466-0.56-0.096-1.11-0.205-1.65-0.33-1.68-0.384-3.28-0.905-4.79-1.55-0.322-0.137-0.639-0.28-0.953-0.428-0.304-0.143-0.601-0.294-0.897-0.447-3.98-2.06-7.31-5.02-9.85-8.68-3.18-4.58-5.1-10.2-5.53-16.5-0.166-2.46-0.1-5.02 0.209-7.65 0.041-0.355 0.076-0.706 0.127-1.06 2.01-14.2 12.3-30.1 30.7-34.2 0.875-0.193 1.76-0.368 2.67-0.506 3.04-0.457 6.02-0.735 8.94-0.873 21.4-1.01 38.9 5.81 44.4 8.13 1.76 0.755 3.86 1.85 3.85 3.31-3e-3 1.14-1.46 2.2-4.17 3.81" fill="#a31a34"/></g><g transform="translate(182 273)"><path d="m0 0c-3.36 17.5-15.3 30.9-36.7 38.9-5.55 2.06-11.7 3.76-18.6 5.07-5.57 1.07-11.6 1.88-18 2.42-23.7 1.97-42.2 0.269-55.2-4.48-9.78-3.57-14.5-9.89-15.3-15.6-1.16-7.73 3.23-14.5 11.6-20.7 17.2-12.6 41.3-16.7 49.3-33.6 3.13-6.57 3.49-13.6 1.96-21.6-1.56-8.13-3.71-14.7 0.977-18.8 4.82-4.21 13.7-4.05 28.6 1.1 1.99 0.69 7.2 2.42 13.6 5.48 6.16 2.94 13.4 7.12 20 12.8 0.323 0.299 0.655 0.593 1 0.882 4.12 3.7 7.92 8 10.9 13 3.98 6.57 6.6 14.3 6.78 23.4 7e-3 0.347 0.019 0.691 0.019 1.04 0 3.75-0.341 7.34-1 10.8" fill="#ec5146"/></g><g transform="translate(171 262)"><path d="m0 0c0.023 0.462 0.036 0.923 0.041 1.38 0.046 4.58-0.811 9.05-2.52 13.1-0.814 1.92-1.82 3.74-3.01 5.42-4.28 6.05-10.1 10.5-16.5 13.8-5.78 2.99-12.1 5.02-18.2 6.42-11.2 2.56-21.8 2.98-27.9 3.14-17.5 0.449-29.8-2.46-32.4-9.71-1.9-5.84-0.029-11.3 9.19-16.8 24.1-14.5 27.7-21.5 33.4-36.3 5.59-14.5 25.1-20.1 42.1-8.29 6.2 4.29 10.5 9.8 13 15.7 0.577-3.28 0.871-6.48 0.871-9.47v-1.42h5.62v1.42c0 8.7-1.56 15.6-3.68 21.6" fill="#ed1c24"/></g><g transform="translate(242 216)"><path d="m0 0c-0.34 0.34-0.649 0.712-0.976 1.07-3.51 3.81-6.27 8.46-8.39 13.7-1.12 2.77-2.07 5.69-2.86 8.76-2.01 7.89-7.03 18.2-20.9 18.6-2.72 0.081-5.34-0.525-7.73-1.67-0.708-0.339-1.39-0.731-2.06-1.16-2-1.29-3.78-2.96-5.24-4.93-1.6-2.15-2.81-4.65-3.52-7.35-0.529-2.01-0.775-4.14-0.687-6.32 0.109-2.69 0.736-5.47 1.96-8.22 0.804-1.8 1.85-3.6 3.21-5.36 3.68-4.77 8.33-7.78 13.2-9.63 3.64-1.37 7.43-2.09 11.1-2.41 9.13-0.798 17.4 0.915 20.6 1.49 4.27 0.786 4.43 1.2 2.23 3.4" fill="#751d2c"/></g><g transform="translate(230 287)"><path d="m0 0c-21-0.028-33.1-27.2-33.1-46.9h-2.79c0 26.9 15.2 36.3 15.2 54.3 0 8.69-4.61 18.7-14.3 25.9-1.29 0.969-7.67 5.74-11.4 9.82-3.78-4.08-10.2-8.85-11.4-9.82-9.67-7.25-14.3-17.2-14.3-25.9 0-18 15.2-27.4 15.2-54.3h-2.79c0 19.7-12.1 46.8-33.1 46.9-14.9 0.02-25.3-14.2-22.2-28.4 2.07-9.47 10.7-17.8 21-16.4-1.74 6.57 1.28 14 8.48 15 8.32 1.2 13.4-7.32 14.9-17.1h-0.141c-1.69 0-3.06-1.37-3.06-3.06s1.37-3.06 3.06-3.06h48.7c1.69 0 3.06 1.37 3.06 3.06s-1.37 3.06-3.06 3.06h-0.142c1.56 9.77 6.61 18.3 14.9 17.1 7.2-1.04 10.2-8.42 8.48-15 10.3-1.42 18.9 6.89 21 16.4 3.08 14.2-7.23 28.4-22.2 28.4m-23.3-56c-6e-3 0.052-0.012 0.134-0.018 0.224h-9.71c0.321-7.1 5.76-21.3 14.6-21.3 6.47 0 11.5 5.67 12 11.9-7.89-1.78-15.8 0.061-16.9 9.18m-33.7 0.224c-0.689-6.73-3.1-15-7.9-21.6 3.32-7.23 10.6-14.5 18.5-19 7.88 4.55 15.2 11.8 18.5 19-4.8 6.64-7.21 14.9-7.9 21.6zm-2.8 0c-0.321-7.1-5.76-21.3-14.6-21.3-6.47 0-11.5 5.67-12 11.9 7.89-1.78 15.8 0.061 16.9 9.18 5e-3 0.052 0.012 0.134 0.018 0.224z" fill="#fff"/></g><g transform="translate(276 98)"><path d="m0 0c-2.7 0.741-6.68 1.48-10.2 1.48-3.24 0-4.86-0.27-4.86-2.97 0-1.82 0.944-2.29 6.28-2.97 8.03-1.01 11.6-3.44 11.6-10.5 0-9.38-6.75-11.9-15.5-11.9-3.71 0-9.11 0.742-12.3 1.89l2.02 7.83c2.56-0.741 6.41-1.42 9.78-1.42 4.05 0 5.94 0.337 5.94 3.04 0 1.89-1.15 2.63-6.88 3.17-7.22 0.675-11.1 2.77-11.1 10.1 0 9.38 6.68 11.8 15.3 11.8 3.71 0 8.57-0.741 11.8-1.89zm-38.6-0.271v-12.9c0-3.51 1.01-4.93 4.66-4.93 2.16 0 3.91 0.405 5.53 0.944l1.69-7.96c-2.56-1.08-6.68-1.75-10.4-1.75-7.62 0-11.9 2.29-11.9 12.6v29l10.4 4.18v-10.3h10.8v-8.91zm-24.3 8.91h10.3v-32.5c-4.39-1.55-11.3-3.1-17.5-3.1-9.58 0-14.2 4.05-14.2 16.4v19.2h10.3v-18.4c0-6.21 1.08-7.96 6.14-7.96 1.69 0 3.17 0.27 4.99 0.675zm-47.6-17.3c0-8.7 1.42-10.1 6.28-10.1 4.93 0 6.34 1.42 6.34 10.1 0 9.04-1.42 10.1-6.34 10.1-4.86 0-6.28-1.08-6.28-10.1m-10.5 0.202c0 14.1 5.74 18 16.7 18 11.2 0 16.9-3.91 16.9-18 0-14.2-5.6-18.4-16.9-18.4-11.1 0-16.7 4.25-16.7 18.4m-0.792-16.7c-2.77-1.15-7.42-1.75-10.9-1.75-10.3 0-17.2 4.25-17.2 18.4 0 14 6.95 18 17.2 18 3.58 0 8.16-0.539 10.9-1.48l-2.16-8.77c-1.96 0.742-4.99 1.42-7.83 1.42-5.06 0-7.62-0.876-7.62-9.38 0-8.1 2.56-9.31 7.62-9.31 2.97 0 5.87 0.741 7.83 1.55zm-33.1 33.3c-2.65 0.756-7.18 1.45-12 1.45-6.55 0-8.44-1.26-8.44-4.29 0-2.77 1.26-3.78 8.89-4.6 10-1.13 14.5-4.98 14.5-13.4 0-10.8-5.8-14.3-19.5-14.3-5.3 0-10.7 0.82-14.2 2.08l2.08 8.7c2.84-0.756 7.25-1.45 12-1.45 6.56 0 8.64 0.945 8.64 4.29 0 2.77-1.2 4.1-9.46 4.98-9.39 1.01-13.8 4.1-13.8 12.2 0 10.9 6.3 15.1 19.4 15.1 5.29 0 10.6-0.82 14.1-2.08z" fill="#231f20"/></g><g transform="translate(201 54.1)"><path d="m0 0v4.58h4.36c1.07 0 1.7-0.764 1.7-2.35 0-1.48-0.654-2.22-1.77-2.22zm5.28-1.57c3.03 0.109 3.99 1.98 3.99 4.16 0 2.44-1.03 4.43-4.23 4.43h-7.92v-15.2h2.88v5.8h2.03c0.981 0 2.4-1.64 4.78-5.8h3.55c-2.66 4.45-4.03 6.24-5.08 6.61m-17.5-4.32c-3.34 0-4.16 0.829-4.16 5.41 0 4.6 0.828 5.28 4.16 5.28 3.34 0 4.16-0.676 4.16-5.28 0-4.58-0.828-5.41-4.16-5.41m0 13.3c-4.82 0-7.24-1.66-7.24-7.83 0-6.28 2.4-8.04 7.24-8.04 4.82 0 7.22 1.77 7.22 8.04 0 6.17-2.4 7.83-7.22 7.83m24.3-15.6h2.88v15.2h-2.88zm9.23 6.26c0.784 2.29 1.59 4.54 2.35 6.5h0.589c0.589-1.96 1.33-4.25 2.12-6.5zm5.06 8.94h-4.51c-1.85-4.54-4.08-10.7-5.5-15.2h3.01c0.35 1.16 0.741 2.44 1.18 3.79h6.65c0.502-1.4 1.03-2.7 1.46-3.79h3.18c-1.7 4.06-3.92 10.3-5.47 15.2m-59.2-2.49h5.12v-12.7h2.9v12.7h5.12v2.49h-13.1zm-18-12.7h2.88v15.2h-2.88zm13.2 13c1.02 0 2.44-0.196 3.23-0.479l0.633 2.53c-1.18 0.327-2.97 0.567-4.36 0.567-4.82 0-7.13-1.61-7.13-7.83 0-6.19 2.31-8.04 7.13-8.04 1.4 0 3.18 0.218 4.36 0.545l-0.633 2.57c-0.785-0.283-2.2-0.48-3.23-0.48-3.31 0-4.56 0.72-4.56 5.39s1.24 5.23 4.56 5.23m-21.8-10c-1.11 3.79-2.97 8.96-4.34 12.3h-3.18c1.79-4.06 4.01-10.4 5.49-15.2h3.68c1.92 4.54 4.16 10.7 5.56 15.2h-3.03c-1.09-3.71-2.68-8.57-4.19-12.3" fill="#231f20"/></g></g></g></svg>
