<?xml version="1.0" encoding="UTF-8"?>
<svg width="220mm" height="75.1mm" version="1.1" viewBox="0 0 220 75.1" xmlns="http://www.w3.org/2000/svg"><defs><filter id="filter6" x="0" y="0" width="1" height="1" color-interpolation-filters="sRGB"><feColorMatrix result="color1" type="hueRotate" values="180"/><feColorMatrix result="color2" values="-1 0 0 0 1 0 -1 0 0 1 0 0 -1 0 1 -0.21 -0.72 -0.07 2 0 "/></filter></defs><g transform="translate(5.21 -39.7)"><g transform="translate(61.9 69.1)"><rect x="-67.1" y="-29.4" width="220" height="75.1" ry="0" stroke-width=".523"/></g><g transform="matrix(.959 0 0 .959 2.73 3.17)"><g transform="translate(.000528 5.86e-5)" fill="#fff" stroke-width=".265" aria-label="STAR TREK: SURVIVAL"><path d="m63.5 88.5h4.83c0.446 0 0.827-0.154 1.14-0.469s0.474-0.695 0.474-1.14v-12.1l-4.83 3.22v-5.64h1.61v3.22l3.22-1.62v-3.22c0-0.441-0.16-0.821-0.474-1.14-0.314-0.309-0.695-0.469-1.14-0.469h-4.83c-0.446 0-0.827 0.16-1.14 0.474-0.314 0.32-0.469 0.7-0.469 1.14v12.1l4.83-3.22v5.64h-1.61v-3.22l-3.22 1.62v3.22c0 0.446 0.154 0.827 0.469 1.14s0.695 0.469 1.14 0.469z"/><path d="m74 88.5h3.22v-16.1h2.97v-3.22h-9.16v3.22h2.97z"/><path d="m84.5 78v-5.64h1.61v4.03zm-3.22 10.5h3.22v-7.25l1.61-1.62v8.87h3.22v-17.7c0-0.441-0.16-0.821-0.474-1.14-0.314-0.309-0.695-0.469-1.14-0.469h-4.83c-0.446 0-0.827 0.16-1.14 0.474-0.314 0.32-0.469 0.7-0.469 1.14z"/><path d="m93.6 78v-5.64h1.61v4.03zm-3.22 10.5h3.22v-7.25l0.689-0.689 1.32 7.94h3.22l-2.71-9.33 2.3-1.15v-7.26c0-0.441-0.16-0.821-0.474-1.14-0.314-0.309-0.695-0.469-1.14-0.469h-6.44z"/><path d="m105 88.5h3.22v-16.1h2.97v-3.22h-9.16v3.22h2.97z"/><path d="m116 78v-5.64h1.61v4.03zm-3.22 10.5h3.22v-7.25l0.689-0.689 1.32 7.94h3.22l-2.71-9.33 2.3-1.15v-7.26c0-0.441-0.16-0.821-0.474-1.14-0.314-0.309-0.695-0.469-1.14-0.469h-6.44z"/><path d="m122 88.5h8.06v-3.22h-4.83v-4.03l4.83-2.42v-3.22l-4.83 2.42v-5.64h4.83v-3.22h-8.06z"/><path d="m131 88.5h3.22v-19.3h-3.22zm4.83 0h3.22l-2.12-9.67 2.12-9.67h-3.22l-1.61 9.67z"/><path d="m140 88.5h3.22v-3.22h-3.22zm0-9.67h3.22v-3.22h-3.22z"/><path d="m148 88.5h4.83c0.446 0 0.827-0.154 1.14-0.469s0.474-0.695 0.474-1.14v-12.1l-4.83 3.22v-5.64h1.61v3.22l3.22-1.62v-3.22c0-0.441-0.16-0.821-0.474-1.14-0.314-0.309-0.695-0.469-1.14-0.469h-4.83c-0.446 0-0.827 0.16-1.14 0.474-0.314 0.32-0.469 0.7-0.469 1.14v12.1l4.83-3.22v5.64h-1.61v-3.22l-3.22 1.62v3.22c0 0.446 0.154 0.827 0.469 1.14 0.314 0.314 0.695 0.469 1.14 0.469z"/><path d="m158 88.5h4.83c0.446 0 0.827-0.154 1.14-0.469 0.314-0.314 0.474-0.695 0.474-1.14v-17.7h-3.22v16.1h-1.61v-16.1h-3.22v17.7c0 0.446 0.154 0.827 0.469 1.14 0.314 0.314 0.695 0.469 1.14 0.469z"/><path d="m168 78v-5.64h1.61v4.03zm-3.22 10.5h3.22v-7.25l0.689-0.689 1.32 7.94h3.22l-2.71-9.33 2.3-1.15v-7.26c0-0.441-0.16-0.821-0.474-1.14-0.314-0.309-0.695-0.469-1.14-0.469h-6.44z"/><path d="m176 88.5h3.16l2.51-19.3h-2.86l-1.32 12.1-1.21-12.1h-2.96z"/><path d="m182 88.5h3.22v-19.3h-3.22z"/><path d="m189 88.5h3.16l2.51-19.3h-2.86l-1.32 12.1-1.21-12.1h-2.96z"/><path d="m198 78v-5.64h1.61v4.03zm-3.22 10.5h3.22v-7.25l1.61-1.62v8.87h3.22v-17.7c0-0.441-0.16-0.821-0.474-1.14-0.314-0.309-0.695-0.469-1.14-0.469h-4.83c-0.446 0-0.827 0.16-1.14 0.474-0.314 0.32-0.469 0.7-0.469 1.14z"/><path d="m204 88.5h6.99v-3.22h-3.77v-16.1h-3.22z"/></g><g transform="translate(6.88)"><path d="m-5.18 114c0.389-2.9 1.98-11.8 3.17-17.7 5.84-29.1 12.8-49 19.8-56.2l0.844-0.869 0.815 0.851c7.34 7.67 15 29.3 21.1 59.9 0.763 3.82 1.94 10.2 1.93 10.5-3e-3 0.0988-0.175-0.48-0.382-1.29-3.18-12.4-7.7-20.7-12.6-23.1-2.05-1.01-4.14-1.03-6.57-0.0702-5.43 2.14-13 9.13-21.8 20.1-1.64 2.05-4.29 5.52-5.48 7.18-0.845 1.18-0.841 1.18-0.766 0.614zm4.27-8.29c5.06-6.39 10.3-12 14.4-15.6 4.18-3.63 7.78-5.74 10.9-6.38 1.37-0.282 3.06-0.227 4.3 0.14 2.67 0.794 5.04 2.71 7.36 5.95 0.294 0.411 0.534 0.722 0.534 0.692 0-0.129-0.926-4.06-1.65-7.02-4.78-19.4-10.1-33.4-15.3-40.2-0.449-0.591-0.87-1.14-0.937-1.23-0.108-0.136-0.146-0.123-0.356 0.13-6.19 7.42-12.1 24.2-17.5 49.5-1.09 5.09-1.57 7.6-2.98 15.3-0.0261 0.143-0.0326 0.26-0.0145 0.26s0.58-0.691 1.25-1.54z" fill="#fff" stroke-width=".0945"/><g transform="matrix(.264 0 0 .264 -9.26 38.4)" filter="url(#filter6)"><path d="m143 127c-6.98-3.68-18.5-3.71-18.4-11.5 0.0239-1.71-0.756-2.58-1.88-2.58-0.588 0-1.27 0.239-1.98 0.723-1.62 1.11-4.06 3.19-6.35 5.89-0.486 0.575-0.994 1.22-1.5 1.92 1.01 1.52 1.51 3.16 1.51 4.66 0 5.08-4.27 7.72-4.27 15.3h0.785c0-5.54 3.4-13.2 9.31-13.2 4.21-6e-3 7.11 4.01 6.24 8-0.387 1.77-1.59 3.4-3.21 4.18h2.9e-4c0.0546 0.12 0.109 0.239 0.162 0.357 0.137 0.302 0.274 0.601 0.411 0.894 1.02 2.17 2.03 3.64 3.18 4.79 4.62-3.07 3.74-8.58 9.52-12.6 2.72-1.89 4.89-2.76 6.7-3.34 2.01-0.634 2-2.27-0.272-3.47m-24.6 19.5c-2.22 0.501-4.45-0.0168-4.75-2.58-2e-3 -0.0144-3e-3 -0.0374-4e-3 -0.0627h-2.73c0.0904 2 1.62 5.99 4.11 5.99 1.82 0 3.24-1.6 3.38-3.34m13.6 4.66c8.1e-4 0.412-0.588 0.719-1.08 0.932-1.43 0.61-5.8 2.32-11.3 2.32-1.2 0-2.45-0.0821-3.74-0.276-1.93-0.291-3.57-1.04-4.92-2.06 0.573-0.693 1.05-1.42 1.38-2.14-1.35-1.87-2.03-4.19-2.22-6.08h-5.96c-0.194 1.9-0.874 4.21-2.22 6.08 0.933 2.04 2.98 4.08 5.2 5.36 1.2-0.696 2.36-1.62 3.31-2.64 1.54 1.18 3.34 1.95 5.31 2.24 0.882 0.133 1.79 0.217 2.7 0.257 7e-3 0.115 0.0124 0.228 0.0158 0.336 0.155 4.54-0.854 8.93-2.68 12.7-1.18 2.41-3.01 3.9-5.17 3.9-0.936 0-1.93-0.279-2.97-0.881-3.46-2.02-5.31-6-11.2-8.93-3.57-1.76-6.74-1.83-8.81-1.83-0.184 0-0.36 5.7e-4 -0.526 5.7e-4 -1.2 0-1.91-0.0299-1.95-0.521-0.0518-0.699 1.24-1.25 2.64-2.23 1.94-1.36 4.93-4.23 7.14-6.94 0.817-0.346 1.76-0.783 2.75-1.32-2.92e-4 0-2.92e-4 0-5.73e-4 -2.7e-4 0.471 0.279 1.01 0.444 1.6 0.444 2.49 0 4.02-3.99 4.11-5.99h-2.73c-1e-3 0.0254-4e-3 0.0486-4e-3 0.0627-0.301 2.57-2.53 3.09-4.75 2.58 0.0743 0.898 0.488 1.75 1.12 2.38v-2.7e-4c-2.27 1.2-4.22 1.85-4.89 2.08-2.23 0.775-3.99 1.15-5.35 1.15-1.19 0-2.07-0.285-2.7-0.838-1.32-1.15-0.714-2.99-0.275-5.28 0.431-2.25 0.329-4.24-0.553-6.09-2.28-4.77-9.06-5.91-13.9-9.47-2.36-1.73-3.6-3.65-3.27-5.82 0.243-1.61 1.57-3.39 4.32-4.4 2.65-0.969 6.12-1.49 10.4-1.49 1.61 0 3.33 0.0743 5.17 0.227 6.32 0.526 11.1 1.99 14.5 4.22-0.384 0.974-0.573 1.96-0.573 2.89 0 5.08 4.27 7.72 4.27 15.3h-0.785c0-5.54-3.4-13.2-9.31-13.2-4.21-6e-3 -7.11 4.01-6.24 8 0.582 2.67 3.01 5.01 5.9 4.61-0.489-1.85 0.362-3.93 2.39-4.22 2.34-0.339 3.77 2.06 4.21 4.82h-0.04c-0.476 0-0.862 0.386-0.862 0.862 0 0.476 0.386 0.862 0.862 0.862h13.7c0.476 0 0.862-0.386 0.862-0.862 0-0.476-0.386-0.862-0.862-0.862h-0.04c0.438-2.75 1.86-5.16 4.21-4.82 2.03 0.294 2.88 2.37 2.39 4.22 0.689 0.0954 1.35 0.0336 1.97-0.15h-2.7e-4c0.201 0.44 0.398 0.876 0.596 1.3 2.23 4.77 4.58 6.33 7.68 8.18 0.764 0.454 1.17 0.752 1.18 1.07m-41.1-32.3c-0.11-1.52 0.124-2.83 0.828-3.69 0.781-0.956 2.13-1.13 3.63-1.13 0.873 2.8e-4 1.8 0.0597 2.69 0.0597 1.15 0 2.25-0.0997 3.12-0.559 1.94-1.03 3.2-3.31 5.38-8.61 2.13-5.19 3.89-9.41 7.44-9.44 0.0101 0 0.0192-2.92e-4 0.0293-2.92e-4 3.24 0 4.98 4.67 6.27 9.45 0.426 1.58 1.11 4.26 1.54 7.32-0.495 0.137-1 0.382-1.51 0.727-0.781 0.533-3.56 2.54-6.5 6.03-0.457 0.541-0.924 1.14-1.39 1.76 3e-4 0 3e-4 2.9e-4 5.7e-4 5.7e-4 -0.559-0.708-1.24-1.38-2.04-1.98-0.364-0.273-2.16-1.62-3.22-2.77-1.06 1.15-2.86 2.49-3.22 2.77-1.43 1.07-2.47 2.36-3.13 3.69 2.7e-4 -2.7e-4 2.7e-4 -5.6e-4 2.7e-4 -7.9e-4 -2.59-1.67-5.9-2.89-9.88-3.63"/></g></g></g></g></svg>
